%TF.GenerationSoftware,KiCad,Pcbnew,7.0.7*%
%TF.CreationDate,2024-02-26T23:05:05+05:30*%
%TF.ProjectId,ABC,4142432e-6b69-4636-9164-5f7063625858,v01*%
%TF.SameCoordinates,Original*%
%TF.FileFunction,Copper,L2,Bot*%
%TF.FilePolarity,Positive*%
%FSLAX46Y46*%
G04 Gerber Fmt 4.6, Leading zero omitted, Abs format (unit mm)*
G04 Created by KiCad (PCBNEW 7.0.7) date 2024-02-26 23:05:05*
%MOMM*%
%LPD*%
G01*
G04 APERTURE LIST*
%TA.AperFunction,ComponentPad*%
%ADD10R,1.350000X1.350000*%
%TD*%
%TA.AperFunction,ComponentPad*%
%ADD11O,1.350000X1.350000*%
%TD*%
%TA.AperFunction,ComponentPad*%
%ADD12C,1.620000*%
%TD*%
%TA.AperFunction,ComponentPad*%
%ADD13C,2.400000*%
%TD*%
%TA.AperFunction,ComponentPad*%
%ADD14O,2.400000X2.400000*%
%TD*%
%TA.AperFunction,ComponentPad*%
%ADD15O,1.200000X1.200000*%
%TD*%
%TA.AperFunction,ComponentPad*%
%ADD16O,1.600000X1.200000*%
%TD*%
%TA.AperFunction,ComponentPad*%
%ADD17R,2.800000X2.800000*%
%TD*%
%TA.AperFunction,ComponentPad*%
%ADD18O,2.800000X2.800000*%
%TD*%
%TA.AperFunction,ComponentPad*%
%ADD19R,2.000000X2.000000*%
%TD*%
%TA.AperFunction,ComponentPad*%
%ADD20C,2.000000*%
%TD*%
%TA.AperFunction,Conductor*%
%ADD21C,0.250000*%
%TD*%
G04 APERTURE END LIST*
D10*
%TO.P,TH1,1*%
%TO.N,Net-(BZ1--)*%
X127000000Y-108220000D03*
D11*
%TO.P,TH1,2*%
%TO.N,Net-(D1-A)*%
X127000000Y-110220000D03*
%TD*%
D12*
%TO.P,RV1,1,1*%
%TO.N,Net-(D1-A)*%
X121920000Y-114380000D03*
%TO.P,RV1,2,2*%
%TO.N,Net-(J1-Pin_2)*%
X124420000Y-116880000D03*
%TO.P,RV1,3,3*%
X121920000Y-119380000D03*
%TD*%
D13*
%TO.P,R1,1*%
%TO.N,Net-(D1-K)*%
X110490000Y-144780000D03*
D14*
%TO.P,R1,2*%
%TO.N,Net-(Q1-B)*%
X123190000Y-144780000D03*
%TD*%
D15*
%TO.P,Q1,3,C*%
%TO.N,Net-(BZ1-+)*%
X121920000Y-96520000D03*
%TO.P,Q1,2,B*%
%TO.N,Net-(Q1-B)*%
X124460000Y-93980000D03*
D16*
%TO.P,Q1,1,E*%
%TO.N,Net-(J1-Pin_2)*%
X127000000Y-96520000D03*
%TD*%
D17*
%TO.P,D1,1,K*%
%TO.N,Net-(D1-K)*%
X121920000Y-132080000D03*
D18*
%TO.P,D1,2,A*%
%TO.N,Net-(D1-A)*%
X132080000Y-132080000D03*
%TD*%
D19*
%TO.P,C1,1*%
%TO.N,Net-(D1-K)*%
X109220000Y-132080000D03*
D20*
%TO.P,C1,2*%
%TO.N,Net-(J1-Pin_2)*%
X112720000Y-132080000D03*
%TD*%
D19*
%TO.P,BZ1,1,-*%
%TO.N,Net-(BZ1--)*%
X106700000Y-101600000D03*
D20*
%TO.P,BZ1,2,+*%
%TO.N,Net-(BZ1-+)*%
X114300000Y-101600000D03*
%TD*%
D21*
%TO.N,Net-(J1-Pin_2)*%
X121920000Y-119380000D02*
X124420000Y-116880000D01*
X124076852Y-93055000D02*
X123535000Y-93596852D01*
X124843148Y-93055000D02*
X124076852Y-93055000D01*
X123535000Y-93596852D02*
X123535000Y-115995000D01*
X127000000Y-95211852D02*
X124843148Y-93055000D01*
X123535000Y-115995000D02*
X124420000Y-116880000D01*
X127000000Y-96520000D02*
X127000000Y-95211852D01*
%TO.N,Net-(Q1-B)*%
X124460000Y-95488148D02*
X124460000Y-93980000D01*
X129540000Y-100568148D02*
X124460000Y-95488148D01*
X129540000Y-138430000D02*
X129540000Y-100568148D01*
X123190000Y-144780000D02*
X129540000Y-138430000D01*
%TO.N,Net-(D1-K)*%
X120595000Y-130755000D02*
X121920000Y-132080000D01*
X110545000Y-130755000D02*
X120595000Y-130755000D01*
X109220000Y-132080000D02*
X110545000Y-130755000D01*
X109220000Y-143510000D02*
X110490000Y-144780000D01*
X109220000Y-132080000D02*
X109220000Y-143510000D01*
%TO.N,Net-(BZ1-+)*%
X119380000Y-96520000D02*
X121920000Y-96520000D01*
X114300000Y-101600000D02*
X119380000Y-96520000D01*
%TD*%
%TA.AperFunction,NonConductor*%
G36*
X137102539Y-86380185D02*
G01*
X137148294Y-86432989D01*
X137159500Y-86484500D01*
X137159500Y-152275500D01*
X137139815Y-152342539D01*
X137087011Y-152388294D01*
X137035500Y-152399500D01*
X99184500Y-152399500D01*
X99117461Y-152379815D01*
X99071706Y-152327011D01*
X99060500Y-152275500D01*
X99060500Y-149927763D01*
X99745787Y-149927763D01*
X99775413Y-150197013D01*
X99775415Y-150197024D01*
X99843926Y-150459082D01*
X99843928Y-150459088D01*
X99949870Y-150708390D01*
X100021998Y-150826575D01*
X100090979Y-150939605D01*
X100090986Y-150939615D01*
X100264253Y-151147819D01*
X100264259Y-151147824D01*
X100465998Y-151328582D01*
X100691910Y-151478044D01*
X100937176Y-151593020D01*
X100937183Y-151593022D01*
X100937185Y-151593023D01*
X101196557Y-151671057D01*
X101196564Y-151671058D01*
X101196569Y-151671060D01*
X101464561Y-151710500D01*
X101464566Y-151710500D01*
X101667636Y-151710500D01*
X101719133Y-151706730D01*
X101870156Y-151695677D01*
X101982758Y-151670593D01*
X102134546Y-151636782D01*
X102134548Y-151636781D01*
X102134553Y-151636780D01*
X102387558Y-151540014D01*
X102623777Y-151407441D01*
X102838177Y-151241888D01*
X103026186Y-151046881D01*
X103183799Y-150826579D01*
X103257787Y-150682669D01*
X103307649Y-150585690D01*
X103307651Y-150585684D01*
X103307656Y-150585675D01*
X103395118Y-150329305D01*
X103444319Y-150062933D01*
X103449259Y-149927763D01*
X132765787Y-149927763D01*
X132795413Y-150197013D01*
X132795415Y-150197024D01*
X132863926Y-150459082D01*
X132863928Y-150459088D01*
X132969870Y-150708390D01*
X133041998Y-150826575D01*
X133110979Y-150939605D01*
X133110986Y-150939615D01*
X133284253Y-151147819D01*
X133284259Y-151147824D01*
X133485998Y-151328582D01*
X133711910Y-151478044D01*
X133957176Y-151593020D01*
X133957183Y-151593022D01*
X133957185Y-151593023D01*
X134216557Y-151671057D01*
X134216564Y-151671058D01*
X134216569Y-151671060D01*
X134484561Y-151710500D01*
X134484566Y-151710500D01*
X134687636Y-151710500D01*
X134739133Y-151706730D01*
X134890156Y-151695677D01*
X135002758Y-151670593D01*
X135154546Y-151636782D01*
X135154548Y-151636781D01*
X135154553Y-151636780D01*
X135407558Y-151540014D01*
X135643777Y-151407441D01*
X135858177Y-151241888D01*
X136046186Y-151046881D01*
X136203799Y-150826579D01*
X136277787Y-150682669D01*
X136327649Y-150585690D01*
X136327651Y-150585684D01*
X136327656Y-150585675D01*
X136415118Y-150329305D01*
X136464319Y-150062933D01*
X136474212Y-149792235D01*
X136444586Y-149522982D01*
X136376072Y-149260912D01*
X136270130Y-149011610D01*
X136129018Y-148780390D01*
X136039747Y-148673119D01*
X135955746Y-148572180D01*
X135955740Y-148572175D01*
X135754002Y-148391418D01*
X135528092Y-148241957D01*
X135528090Y-148241956D01*
X135282824Y-148126980D01*
X135282819Y-148126978D01*
X135282814Y-148126976D01*
X135023442Y-148048942D01*
X135023428Y-148048939D01*
X134907791Y-148031921D01*
X134755439Y-148009500D01*
X134552369Y-148009500D01*
X134552364Y-148009500D01*
X134349844Y-148024323D01*
X134349831Y-148024325D01*
X134085453Y-148083217D01*
X134085446Y-148083220D01*
X133832439Y-148179987D01*
X133596226Y-148312557D01*
X133381822Y-148478112D01*
X133193822Y-148673109D01*
X133193816Y-148673116D01*
X133036202Y-148893419D01*
X133036199Y-148893424D01*
X132912350Y-149134309D01*
X132912343Y-149134327D01*
X132824884Y-149390685D01*
X132824881Y-149390699D01*
X132775681Y-149657068D01*
X132775680Y-149657075D01*
X132765787Y-149927763D01*
X103449259Y-149927763D01*
X103454212Y-149792235D01*
X103424586Y-149522982D01*
X103356072Y-149260912D01*
X103250130Y-149011610D01*
X103109018Y-148780390D01*
X103019747Y-148673119D01*
X102935746Y-148572180D01*
X102935740Y-148572175D01*
X102734002Y-148391418D01*
X102508092Y-148241957D01*
X102508090Y-148241956D01*
X102262824Y-148126980D01*
X102262819Y-148126978D01*
X102262814Y-148126976D01*
X102003442Y-148048942D01*
X102003428Y-148048939D01*
X101887791Y-148031921D01*
X101735439Y-148009500D01*
X101532369Y-148009500D01*
X101532364Y-148009500D01*
X101329844Y-148024323D01*
X101329831Y-148024325D01*
X101065453Y-148083217D01*
X101065446Y-148083220D01*
X100812439Y-148179987D01*
X100576226Y-148312557D01*
X100361822Y-148478112D01*
X100173822Y-148673109D01*
X100173816Y-148673116D01*
X100016202Y-148893419D01*
X100016199Y-148893424D01*
X99892350Y-149134309D01*
X99892343Y-149134327D01*
X99804884Y-149390685D01*
X99804881Y-149390699D01*
X99755681Y-149657068D01*
X99755680Y-149657075D01*
X99745787Y-149927763D01*
X99060500Y-149927763D01*
X99060500Y-133127870D01*
X107719500Y-133127870D01*
X107719501Y-133127876D01*
X107725908Y-133187483D01*
X107776202Y-133322328D01*
X107776206Y-133322335D01*
X107862452Y-133437544D01*
X107862455Y-133437547D01*
X107977664Y-133523793D01*
X107977671Y-133523797D01*
X108019961Y-133539570D01*
X108112517Y-133574091D01*
X108172127Y-133580500D01*
X108470500Y-133580499D01*
X108537539Y-133600183D01*
X108583294Y-133652987D01*
X108594500Y-133704499D01*
X108594500Y-143427255D01*
X108592775Y-143442872D01*
X108593061Y-143442899D01*
X108592326Y-143450665D01*
X108594500Y-143519814D01*
X108594500Y-143549343D01*
X108594501Y-143549360D01*
X108595368Y-143556231D01*
X108595826Y-143562050D01*
X108597290Y-143608624D01*
X108597291Y-143608627D01*
X108602880Y-143627867D01*
X108606824Y-143646911D01*
X108609336Y-143666791D01*
X108626490Y-143710119D01*
X108628382Y-143715647D01*
X108641381Y-143760388D01*
X108651580Y-143777634D01*
X108660138Y-143795103D01*
X108667514Y-143813732D01*
X108694898Y-143851423D01*
X108698106Y-143856307D01*
X108721827Y-143896416D01*
X108721833Y-143896424D01*
X108735990Y-143910580D01*
X108748628Y-143925376D01*
X108760405Y-143941586D01*
X108760406Y-143941587D01*
X108796309Y-143971288D01*
X108800620Y-143975210D01*
X108865519Y-144040109D01*
X108871370Y-144045960D01*
X108904855Y-144107283D01*
X108899871Y-144176975D01*
X108899118Y-144178942D01*
X108860491Y-144277362D01*
X108803777Y-144525845D01*
X108784732Y-144779995D01*
X108784732Y-144780004D01*
X108803777Y-145034154D01*
X108803778Y-145034157D01*
X108860492Y-145282637D01*
X108953607Y-145519888D01*
X109081041Y-145740612D01*
X109239950Y-145939877D01*
X109426783Y-146113232D01*
X109637366Y-146256805D01*
X109637371Y-146256807D01*
X109637372Y-146256808D01*
X109637373Y-146256809D01*
X109759328Y-146315538D01*
X109866992Y-146367387D01*
X109866993Y-146367387D01*
X109866996Y-146367389D01*
X110110542Y-146442513D01*
X110362565Y-146480500D01*
X110617435Y-146480500D01*
X110869458Y-146442513D01*
X111113004Y-146367389D01*
X111342634Y-146256805D01*
X111553217Y-146113232D01*
X111740050Y-145939877D01*
X111898959Y-145740612D01*
X112026393Y-145519888D01*
X112119508Y-145282637D01*
X112176222Y-145034157D01*
X112195268Y-144780000D01*
X112176222Y-144525843D01*
X112119508Y-144277363D01*
X112026393Y-144040112D01*
X111898959Y-143819388D01*
X111740050Y-143620123D01*
X111553217Y-143446768D01*
X111342634Y-143303195D01*
X111342630Y-143303193D01*
X111342627Y-143303191D01*
X111342626Y-143303190D01*
X111113006Y-143192612D01*
X111113008Y-143192612D01*
X110869466Y-143117489D01*
X110869462Y-143117488D01*
X110869458Y-143117487D01*
X110748231Y-143099214D01*
X110617440Y-143079500D01*
X110617435Y-143079500D01*
X110362565Y-143079500D01*
X110362559Y-143079500D01*
X110205609Y-143103157D01*
X110110542Y-143117487D01*
X110110538Y-143117488D01*
X110110539Y-143117488D01*
X110110529Y-143117490D01*
X110006049Y-143149718D01*
X109936186Y-143150668D01*
X109876900Y-143113697D01*
X109847013Y-143050541D01*
X109845500Y-143031227D01*
X109845500Y-133704499D01*
X109865185Y-133637460D01*
X109917989Y-133591705D01*
X109969500Y-133580499D01*
X110267871Y-133580499D01*
X110267872Y-133580499D01*
X110327483Y-133574091D01*
X110462331Y-133523796D01*
X110577546Y-133437546D01*
X110663796Y-133322331D01*
X110714091Y-133187483D01*
X110720500Y-133127873D01*
X110720499Y-131515453D01*
X110740184Y-131448415D01*
X110756822Y-131427769D01*
X110767777Y-131416815D01*
X110829101Y-131383333D01*
X110855454Y-131380500D01*
X111198527Y-131380500D01*
X111265566Y-131400185D01*
X111311321Y-131452989D01*
X111321265Y-131522147D01*
X111312083Y-131554307D01*
X111298997Y-131584142D01*
X111295936Y-131591121D01*
X111234892Y-131832175D01*
X111234890Y-131832187D01*
X111214357Y-132079994D01*
X111214357Y-132080005D01*
X111234890Y-132327812D01*
X111234892Y-132327824D01*
X111295936Y-132568881D01*
X111395826Y-132796606D01*
X111531833Y-133004782D01*
X111531836Y-133004785D01*
X111700256Y-133187738D01*
X111896491Y-133340474D01*
X112115190Y-133458828D01*
X112350386Y-133539571D01*
X112595665Y-133580500D01*
X112844335Y-133580500D01*
X113089614Y-133539571D01*
X113324810Y-133458828D01*
X113543509Y-133340474D01*
X113739744Y-133187738D01*
X113908164Y-133004785D01*
X114044173Y-132796607D01*
X114144063Y-132568881D01*
X114205108Y-132327821D01*
X114225643Y-132080000D01*
X114205108Y-131832179D01*
X114144063Y-131591119D01*
X114127916Y-131554309D01*
X114119014Y-131485011D01*
X114148991Y-131421898D01*
X114208330Y-131385011D01*
X114241473Y-131380500D01*
X119895500Y-131380500D01*
X119962539Y-131400185D01*
X120008294Y-131452989D01*
X120019500Y-131504500D01*
X120019500Y-133527870D01*
X120019501Y-133527876D01*
X120025908Y-133587483D01*
X120076202Y-133722328D01*
X120076206Y-133722335D01*
X120162452Y-133837544D01*
X120162455Y-133837547D01*
X120277664Y-133923793D01*
X120277671Y-133923797D01*
X120412517Y-133974091D01*
X120412516Y-133974091D01*
X120419444Y-133974835D01*
X120472127Y-133980500D01*
X123367872Y-133980499D01*
X123427483Y-133974091D01*
X123562331Y-133923796D01*
X123677546Y-133837546D01*
X123763796Y-133722331D01*
X123814091Y-133587483D01*
X123820500Y-133527873D01*
X123820499Y-130632128D01*
X123814091Y-130572517D01*
X123803149Y-130543181D01*
X123763797Y-130437671D01*
X123763793Y-130437664D01*
X123677547Y-130322455D01*
X123677544Y-130322452D01*
X123562335Y-130236206D01*
X123562328Y-130236202D01*
X123427482Y-130185908D01*
X123427483Y-130185908D01*
X123367883Y-130179501D01*
X123367881Y-130179500D01*
X123367873Y-130179500D01*
X123367865Y-130179500D01*
X120877763Y-130179500D01*
X120832117Y-130170793D01*
X120827089Y-130168802D01*
X120807692Y-130163822D01*
X120789281Y-130157518D01*
X120770898Y-130149562D01*
X120770892Y-130149560D01*
X120724874Y-130142272D01*
X120719152Y-130141087D01*
X120674021Y-130129500D01*
X120674019Y-130129500D01*
X120653984Y-130129500D01*
X120634586Y-130127973D01*
X120627162Y-130126797D01*
X120614805Y-130124840D01*
X120614804Y-130124840D01*
X120568416Y-130129225D01*
X120562578Y-130129500D01*
X110627743Y-130129500D01*
X110612122Y-130127775D01*
X110612096Y-130128061D01*
X110604334Y-130127327D01*
X110604333Y-130127327D01*
X110535186Y-130129500D01*
X110505649Y-130129500D01*
X110498766Y-130130369D01*
X110492949Y-130130826D01*
X110446373Y-130132290D01*
X110427129Y-130137881D01*
X110408079Y-130141825D01*
X110388211Y-130144334D01*
X110344884Y-130161488D01*
X110339358Y-130163379D01*
X110294614Y-130176379D01*
X110294610Y-130176381D01*
X110277366Y-130186579D01*
X110259905Y-130195133D01*
X110241274Y-130202510D01*
X110241262Y-130202517D01*
X110203570Y-130229902D01*
X110198687Y-130233109D01*
X110158580Y-130256829D01*
X110144414Y-130270995D01*
X110129624Y-130283627D01*
X110113414Y-130295404D01*
X110113411Y-130295407D01*
X110083710Y-130331309D01*
X110079777Y-130335631D01*
X109872227Y-130543181D01*
X109810904Y-130576666D01*
X109784546Y-130579500D01*
X108172129Y-130579500D01*
X108172123Y-130579501D01*
X108112516Y-130585908D01*
X107977671Y-130636202D01*
X107977664Y-130636206D01*
X107862455Y-130722452D01*
X107862452Y-130722455D01*
X107776206Y-130837664D01*
X107776202Y-130837671D01*
X107725908Y-130972517D01*
X107719501Y-131032116D01*
X107719500Y-131032135D01*
X107719500Y-133127870D01*
X99060500Y-133127870D01*
X99060500Y-102647870D01*
X105199500Y-102647870D01*
X105199501Y-102647876D01*
X105205908Y-102707483D01*
X105256202Y-102842328D01*
X105256206Y-102842335D01*
X105342452Y-102957544D01*
X105342455Y-102957547D01*
X105457664Y-103043793D01*
X105457671Y-103043797D01*
X105592517Y-103094091D01*
X105592516Y-103094091D01*
X105599444Y-103094835D01*
X105652127Y-103100500D01*
X107747872Y-103100499D01*
X107807483Y-103094091D01*
X107942331Y-103043796D01*
X108057546Y-102957546D01*
X108143796Y-102842331D01*
X108194091Y-102707483D01*
X108200500Y-102647873D01*
X108200500Y-101600005D01*
X112794357Y-101600005D01*
X112814890Y-101847812D01*
X112814892Y-101847824D01*
X112875936Y-102088881D01*
X112975826Y-102316606D01*
X113111833Y-102524782D01*
X113111836Y-102524785D01*
X113280256Y-102707738D01*
X113476491Y-102860474D01*
X113695190Y-102978828D01*
X113930386Y-103059571D01*
X114175665Y-103100500D01*
X114424335Y-103100500D01*
X114669614Y-103059571D01*
X114904810Y-102978828D01*
X115123509Y-102860474D01*
X115319744Y-102707738D01*
X115488164Y-102524785D01*
X115624173Y-102316607D01*
X115724063Y-102088881D01*
X115785108Y-101847821D01*
X115805643Y-101600000D01*
X115785108Y-101352179D01*
X115731136Y-101139049D01*
X115733760Y-101069230D01*
X115763658Y-101020930D01*
X119602771Y-97181819D01*
X119664095Y-97148334D01*
X119690453Y-97145500D01*
X120951567Y-97145500D01*
X121018606Y-97165185D01*
X121050521Y-97194773D01*
X121103237Y-97264581D01*
X121253958Y-97401980D01*
X121253960Y-97401982D01*
X121331525Y-97450008D01*
X121427363Y-97509348D01*
X121617544Y-97583024D01*
X121818024Y-97620500D01*
X121818026Y-97620500D01*
X122021974Y-97620500D01*
X122021976Y-97620500D01*
X122222456Y-97583024D01*
X122412637Y-97509348D01*
X122586041Y-97401981D01*
X122701962Y-97296304D01*
X122764766Y-97265688D01*
X122834153Y-97273885D01*
X122888093Y-97318295D01*
X122909461Y-97384817D01*
X122909500Y-97387942D01*
X122909500Y-113234828D01*
X122889815Y-113301867D01*
X122837011Y-113347622D01*
X122767853Y-113357566D01*
X122714376Y-113336403D01*
X122577753Y-113240738D01*
X122369930Y-113143829D01*
X122369927Y-113143828D01*
X122369925Y-113143827D01*
X122148436Y-113084479D01*
X122148429Y-113084478D01*
X121920002Y-113064494D01*
X121919998Y-113064494D01*
X121691570Y-113084478D01*
X121691563Y-113084479D01*
X121470074Y-113143827D01*
X121470070Y-113143829D01*
X121262247Y-113240738D01*
X121074409Y-113372264D01*
X121074407Y-113372265D01*
X121074404Y-113372268D01*
X120912268Y-113534404D01*
X120780738Y-113722247D01*
X120683830Y-113930068D01*
X120683827Y-113930074D01*
X120624479Y-114151563D01*
X120624478Y-114151570D01*
X120604494Y-114379997D01*
X120604494Y-114380002D01*
X120624478Y-114608429D01*
X120624479Y-114608436D01*
X120683827Y-114829925D01*
X120683828Y-114829927D01*
X120683829Y-114829930D01*
X120780738Y-115037753D01*
X120912264Y-115225591D01*
X121074409Y-115387736D01*
X121262247Y-115519262D01*
X121470070Y-115616171D01*
X121691565Y-115675521D01*
X121854732Y-115689796D01*
X121919998Y-115695506D01*
X121920000Y-115695506D01*
X121920002Y-115695506D01*
X121977108Y-115690509D01*
X122148435Y-115675521D01*
X122369930Y-115616171D01*
X122577753Y-115519262D01*
X122714376Y-115423596D01*
X122780582Y-115401269D01*
X122848349Y-115418279D01*
X122896163Y-115469226D01*
X122909500Y-115525171D01*
X122909500Y-115912255D01*
X122907775Y-115927872D01*
X122908061Y-115927899D01*
X122907326Y-115935665D01*
X122909500Y-116004814D01*
X122909500Y-116034343D01*
X122909501Y-116034360D01*
X122910368Y-116041231D01*
X122910826Y-116047050D01*
X122912290Y-116093624D01*
X122912291Y-116093627D01*
X122917880Y-116112867D01*
X122921824Y-116131911D01*
X122924336Y-116151791D01*
X122941490Y-116195119D01*
X122943382Y-116200647D01*
X122956381Y-116245388D01*
X122966580Y-116262634D01*
X122975138Y-116280103D01*
X122982514Y-116298732D01*
X123009898Y-116336423D01*
X123013106Y-116341307D01*
X123036827Y-116381416D01*
X123036833Y-116381424D01*
X123050990Y-116395580D01*
X123063627Y-116410375D01*
X123075406Y-116426587D01*
X123103581Y-116449895D01*
X123142689Y-116507795D01*
X123144316Y-116577532D01*
X123124479Y-116651562D01*
X123124479Y-116651566D01*
X123104494Y-116879997D01*
X123104494Y-116880002D01*
X123124478Y-117108429D01*
X123124481Y-117108443D01*
X123144515Y-117183214D01*
X123142852Y-117253063D01*
X123112421Y-117302987D01*
X122342987Y-118072421D01*
X122281664Y-118105906D01*
X122223214Y-118104515D01*
X122148443Y-118084481D01*
X122148440Y-118084480D01*
X122148435Y-118084479D01*
X122148432Y-118084478D01*
X122148429Y-118084478D01*
X121920002Y-118064494D01*
X121919998Y-118064494D01*
X121691570Y-118084478D01*
X121691563Y-118084479D01*
X121470074Y-118143827D01*
X121470070Y-118143829D01*
X121262247Y-118240738D01*
X121074409Y-118372264D01*
X121074407Y-118372265D01*
X121074404Y-118372268D01*
X120912268Y-118534404D01*
X120780738Y-118722247D01*
X120683830Y-118930068D01*
X120683827Y-118930074D01*
X120624479Y-119151563D01*
X120624478Y-119151570D01*
X120604494Y-119379997D01*
X120604494Y-119380002D01*
X120624478Y-119608429D01*
X120624479Y-119608436D01*
X120683827Y-119829925D01*
X120683828Y-119829927D01*
X120683829Y-119829930D01*
X120780738Y-120037753D01*
X120912264Y-120225591D01*
X121074409Y-120387736D01*
X121262247Y-120519262D01*
X121470070Y-120616171D01*
X121691565Y-120675521D01*
X121854732Y-120689796D01*
X121919998Y-120695506D01*
X121920000Y-120695506D01*
X121920002Y-120695506D01*
X121977108Y-120690509D01*
X122148435Y-120675521D01*
X122369930Y-120616171D01*
X122577753Y-120519262D01*
X122765591Y-120387736D01*
X122927736Y-120225591D01*
X123059262Y-120037753D01*
X123156171Y-119829930D01*
X123215521Y-119608435D01*
X123235506Y-119380000D01*
X123215521Y-119151565D01*
X123195483Y-119076787D01*
X123197146Y-119006937D01*
X123227575Y-118957013D01*
X123997013Y-118187575D01*
X124058334Y-118154092D01*
X124116787Y-118155484D01*
X124191557Y-118175519D01*
X124191558Y-118175519D01*
X124191565Y-118175521D01*
X124385980Y-118192529D01*
X124419998Y-118195506D01*
X124420000Y-118195506D01*
X124420002Y-118195506D01*
X124477108Y-118190509D01*
X124648435Y-118175521D01*
X124869930Y-118116171D01*
X125077753Y-118019262D01*
X125265591Y-117887736D01*
X125427736Y-117725591D01*
X125559262Y-117537753D01*
X125656171Y-117329930D01*
X125715521Y-117108435D01*
X125735506Y-116880000D01*
X125715521Y-116651565D01*
X125656171Y-116430070D01*
X125559262Y-116222247D01*
X125427736Y-116034409D01*
X125265591Y-115872264D01*
X125077753Y-115740738D01*
X124869930Y-115643829D01*
X124869927Y-115643828D01*
X124869925Y-115643827D01*
X124648436Y-115584479D01*
X124648429Y-115584478D01*
X124420002Y-115564494D01*
X124419997Y-115564494D01*
X124295306Y-115575402D01*
X124226806Y-115561635D01*
X124176624Y-115513019D01*
X124160500Y-115451874D01*
X124160500Y-110220000D01*
X125819464Y-110220000D01*
X125839564Y-110436918D01*
X125839564Y-110436920D01*
X125839565Y-110436923D01*
X125899183Y-110646459D01*
X125996288Y-110841472D01*
X126127573Y-111015322D01*
X126288568Y-111162088D01*
X126288575Y-111162092D01*
X126288576Y-111162093D01*
X126473786Y-111276770D01*
X126473792Y-111276773D01*
X126496664Y-111285633D01*
X126676931Y-111355470D01*
X126891074Y-111395500D01*
X126891076Y-111395500D01*
X127108924Y-111395500D01*
X127108926Y-111395500D01*
X127323069Y-111355470D01*
X127526210Y-111276772D01*
X127711432Y-111162088D01*
X127872427Y-111015322D01*
X128003712Y-110841472D01*
X128100817Y-110646459D01*
X128160435Y-110436923D01*
X128180536Y-110220000D01*
X128160435Y-110003077D01*
X128100817Y-109793541D01*
X128003712Y-109598528D01*
X127922251Y-109490656D01*
X127897560Y-109425297D01*
X127912125Y-109356962D01*
X127946895Y-109316665D01*
X127994545Y-109280993D01*
X128032546Y-109252546D01*
X128118796Y-109137331D01*
X128169091Y-109002483D01*
X128175500Y-108942873D01*
X128175499Y-107497128D01*
X128169091Y-107437517D01*
X128118796Y-107302669D01*
X128118795Y-107302668D01*
X128118793Y-107302664D01*
X128032547Y-107187455D01*
X128032544Y-107187452D01*
X127917335Y-107101206D01*
X127917328Y-107101202D01*
X127782482Y-107050908D01*
X127782483Y-107050908D01*
X127722883Y-107044501D01*
X127722881Y-107044500D01*
X127722873Y-107044500D01*
X127722864Y-107044500D01*
X126277129Y-107044500D01*
X126277123Y-107044501D01*
X126217516Y-107050908D01*
X126082671Y-107101202D01*
X126082664Y-107101206D01*
X125967455Y-107187452D01*
X125967452Y-107187455D01*
X125881206Y-107302664D01*
X125881202Y-107302671D01*
X125830908Y-107437517D01*
X125824501Y-107497116D01*
X125824501Y-107497123D01*
X125824500Y-107497135D01*
X125824500Y-108942870D01*
X125824501Y-108942876D01*
X125830908Y-109002483D01*
X125881202Y-109137328D01*
X125881206Y-109137335D01*
X125950358Y-109229709D01*
X125967454Y-109252546D01*
X126053105Y-109316664D01*
X126094975Y-109372597D01*
X126099959Y-109442289D01*
X126077748Y-109490656D01*
X125996288Y-109598528D01*
X125899184Y-109793537D01*
X125839564Y-110003081D01*
X125819464Y-110219999D01*
X125819464Y-110220000D01*
X124160500Y-110220000D01*
X124160500Y-96372600D01*
X124180185Y-96305561D01*
X124232989Y-96259806D01*
X124302147Y-96249862D01*
X124365703Y-96278887D01*
X124372180Y-96284918D01*
X128878181Y-100790920D01*
X128911665Y-100852241D01*
X128914499Y-100878599D01*
X128914499Y-138119546D01*
X128894814Y-138186585D01*
X128878180Y-138207227D01*
X123926819Y-143158588D01*
X123865496Y-143192073D01*
X123802588Y-143189398D01*
X123569466Y-143117489D01*
X123569462Y-143117488D01*
X123569458Y-143117487D01*
X123448231Y-143099214D01*
X123317440Y-143079500D01*
X123317435Y-143079500D01*
X123062565Y-143079500D01*
X123062559Y-143079500D01*
X122905609Y-143103157D01*
X122810542Y-143117487D01*
X122810538Y-143117488D01*
X122810539Y-143117488D01*
X122810533Y-143117489D01*
X122566992Y-143192612D01*
X122337373Y-143303190D01*
X122337372Y-143303191D01*
X122126782Y-143446768D01*
X121939952Y-143620121D01*
X121939950Y-143620123D01*
X121781041Y-143819388D01*
X121653608Y-144040109D01*
X121560492Y-144277362D01*
X121560490Y-144277369D01*
X121503777Y-144525845D01*
X121484732Y-144779995D01*
X121484732Y-144780004D01*
X121503777Y-145034154D01*
X121503778Y-145034157D01*
X121560492Y-145282637D01*
X121653607Y-145519888D01*
X121781041Y-145740612D01*
X121939950Y-145939877D01*
X122126783Y-146113232D01*
X122337366Y-146256805D01*
X122337371Y-146256807D01*
X122337372Y-146256808D01*
X122337373Y-146256809D01*
X122459328Y-146315538D01*
X122566992Y-146367387D01*
X122566993Y-146367387D01*
X122566996Y-146367389D01*
X122810542Y-146442513D01*
X123062565Y-146480500D01*
X123317435Y-146480500D01*
X123569458Y-146442513D01*
X123813004Y-146367389D01*
X124042634Y-146256805D01*
X124253217Y-146113232D01*
X124440050Y-145939877D01*
X124598959Y-145740612D01*
X124726393Y-145519888D01*
X124819508Y-145282637D01*
X124876222Y-145034157D01*
X124895268Y-144780000D01*
X124876222Y-144525843D01*
X124819508Y-144277363D01*
X124780880Y-144178943D01*
X124774712Y-144109348D01*
X124807149Y-144047464D01*
X124808566Y-144046023D01*
X129923788Y-138930801D01*
X129936042Y-138920986D01*
X129935859Y-138920764D01*
X129941866Y-138915792D01*
X129941877Y-138915786D01*
X129972775Y-138882882D01*
X129989227Y-138865364D01*
X129999671Y-138854918D01*
X130010120Y-138844471D01*
X130014379Y-138838978D01*
X130018152Y-138834561D01*
X130050062Y-138800582D01*
X130059713Y-138783024D01*
X130070396Y-138766761D01*
X130082673Y-138750936D01*
X130101185Y-138708153D01*
X130103738Y-138702941D01*
X130126197Y-138662092D01*
X130131180Y-138642680D01*
X130137481Y-138624280D01*
X130145437Y-138605896D01*
X130152729Y-138559852D01*
X130153906Y-138554171D01*
X130165500Y-138509019D01*
X130165500Y-138488982D01*
X130167027Y-138469582D01*
X130170160Y-138449804D01*
X130165775Y-138403415D01*
X130165500Y-138397577D01*
X130165500Y-133025263D01*
X130185185Y-132958224D01*
X130237989Y-132912469D01*
X130307147Y-132902525D01*
X130370703Y-132931550D01*
X130398332Y-132965837D01*
X130477106Y-133110102D01*
X130477110Y-133110108D01*
X130477113Y-133110113D01*
X130640029Y-133327742D01*
X130640033Y-133327746D01*
X130640038Y-133327752D01*
X130832247Y-133519961D01*
X130832253Y-133519966D01*
X130832258Y-133519971D01*
X131049887Y-133682887D01*
X131049891Y-133682889D01*
X131049892Y-133682890D01*
X131288481Y-133813169D01*
X131288480Y-133813169D01*
X131288484Y-133813170D01*
X131288487Y-133813172D01*
X131543199Y-133908175D01*
X131808840Y-133965961D01*
X132060604Y-133983967D01*
X132079999Y-133985355D01*
X132080000Y-133985355D01*
X132080001Y-133985355D01*
X132098100Y-133984060D01*
X132351160Y-133965961D01*
X132616801Y-133908175D01*
X132871513Y-133813172D01*
X132871517Y-133813169D01*
X132871519Y-133813169D01*
X133070533Y-133704499D01*
X133110113Y-133682887D01*
X133327742Y-133519971D01*
X133519971Y-133327742D01*
X133682887Y-133110113D01*
X133765824Y-132958224D01*
X133813169Y-132871519D01*
X133813169Y-132871517D01*
X133813172Y-132871513D01*
X133908175Y-132616801D01*
X133965961Y-132351160D01*
X133985355Y-132080000D01*
X133965961Y-131808840D01*
X133908175Y-131543199D01*
X133813172Y-131288487D01*
X133813170Y-131288484D01*
X133813169Y-131288480D01*
X133682890Y-131049892D01*
X133682889Y-131049891D01*
X133682887Y-131049887D01*
X133519971Y-130832258D01*
X133519966Y-130832253D01*
X133519961Y-130832247D01*
X133327752Y-130640038D01*
X133327746Y-130640033D01*
X133327742Y-130640029D01*
X133110113Y-130477113D01*
X133110108Y-130477110D01*
X133110107Y-130477109D01*
X132871518Y-130346830D01*
X132871519Y-130346830D01*
X132821920Y-130328330D01*
X132616801Y-130251825D01*
X132616794Y-130251823D01*
X132616793Y-130251823D01*
X132351167Y-130194040D01*
X132351160Y-130194039D01*
X132080001Y-130174645D01*
X132079999Y-130174645D01*
X131808839Y-130194039D01*
X131808832Y-130194040D01*
X131543206Y-130251823D01*
X131543202Y-130251824D01*
X131543199Y-130251825D01*
X131473306Y-130277894D01*
X131288480Y-130346830D01*
X131049892Y-130477109D01*
X131049891Y-130477110D01*
X130832259Y-130640028D01*
X130832247Y-130640038D01*
X130640038Y-130832247D01*
X130640028Y-130832259D01*
X130477110Y-131049891D01*
X130477109Y-131049892D01*
X130398332Y-131194163D01*
X130348927Y-131243568D01*
X130280654Y-131258420D01*
X130215190Y-131234003D01*
X130173318Y-131178070D01*
X130165500Y-131134736D01*
X130165500Y-100650890D01*
X130167224Y-100635270D01*
X130166939Y-100635244D01*
X130167671Y-100627488D01*
X130167673Y-100627481D01*
X130165500Y-100558333D01*
X130165500Y-100528798D01*
X130164631Y-100521920D01*
X130164172Y-100516091D01*
X130162709Y-100469520D01*
X130157122Y-100450292D01*
X130153174Y-100431232D01*
X130150663Y-100411352D01*
X130133512Y-100368035D01*
X130131619Y-100362506D01*
X130118618Y-100317757D01*
X130118616Y-100317754D01*
X130108423Y-100300519D01*
X130099861Y-100283042D01*
X130092487Y-100264418D01*
X130092486Y-100264416D01*
X130065079Y-100226693D01*
X130061888Y-100221834D01*
X130038172Y-100181731D01*
X130038165Y-100181722D01*
X130024006Y-100167563D01*
X130011368Y-100152767D01*
X130002404Y-100140429D01*
X129999594Y-100136561D01*
X129963688Y-100106857D01*
X129959376Y-100102934D01*
X127593633Y-97737191D01*
X127560148Y-97675868D01*
X127565132Y-97606176D01*
X127607004Y-97550243D01*
X127624485Y-97539299D01*
X127797682Y-97450011D01*
X127962886Y-97320092D01*
X128100519Y-97161256D01*
X128205604Y-96979244D01*
X128274344Y-96780633D01*
X128304254Y-96572602D01*
X128294254Y-96362670D01*
X128244704Y-96158424D01*
X128199941Y-96060407D01*
X128157401Y-95967256D01*
X128157398Y-95967251D01*
X128157397Y-95967250D01*
X128157396Y-95967247D01*
X128035486Y-95796048D01*
X128035484Y-95796046D01*
X128035479Y-95796040D01*
X127883379Y-95651014D01*
X127706572Y-95537386D01*
X127706566Y-95537383D01*
X127703408Y-95536119D01*
X127702065Y-95535063D01*
X127701324Y-95534681D01*
X127701397Y-95534537D01*
X127648488Y-95492926D01*
X127625639Y-95426898D01*
X127625500Y-95421045D01*
X127625500Y-95294587D01*
X127627224Y-95278975D01*
X127626938Y-95278948D01*
X127627672Y-95271185D01*
X127625500Y-95202054D01*
X127625500Y-95172503D01*
X127625500Y-95172502D01*
X127624629Y-95165611D01*
X127624172Y-95159797D01*
X127622709Y-95113226D01*
X127622709Y-95113224D01*
X127617120Y-95093989D01*
X127613174Y-95074936D01*
X127610664Y-95055060D01*
X127593501Y-95011711D01*
X127591614Y-95006198D01*
X127578617Y-94961462D01*
X127578616Y-94961460D01*
X127568421Y-94944221D01*
X127559860Y-94926745D01*
X127552486Y-94908121D01*
X127552486Y-94908119D01*
X127536888Y-94886651D01*
X127525083Y-94870402D01*
X127521900Y-94865557D01*
X127498170Y-94825431D01*
X127498165Y-94825425D01*
X127484005Y-94811265D01*
X127471370Y-94796472D01*
X127459593Y-94780264D01*
X127423693Y-94750565D01*
X127419381Y-94746642D01*
X125343951Y-92671212D01*
X125334128Y-92658950D01*
X125333907Y-92659134D01*
X125328934Y-92653123D01*
X125310307Y-92635631D01*
X125278512Y-92605773D01*
X125268067Y-92595328D01*
X125257623Y-92584883D01*
X125252134Y-92580625D01*
X125247709Y-92576847D01*
X125213730Y-92544938D01*
X125213728Y-92544936D01*
X125213725Y-92544935D01*
X125196177Y-92535288D01*
X125179911Y-92524604D01*
X125164081Y-92512325D01*
X125121316Y-92493818D01*
X125116070Y-92491248D01*
X125075241Y-92468803D01*
X125075240Y-92468802D01*
X125055841Y-92463822D01*
X125037429Y-92457518D01*
X125019046Y-92449562D01*
X125019040Y-92449560D01*
X124973022Y-92442272D01*
X124967300Y-92441087D01*
X124922169Y-92429500D01*
X124922167Y-92429500D01*
X124902132Y-92429500D01*
X124882734Y-92427973D01*
X124875310Y-92426797D01*
X124862953Y-92424840D01*
X124862952Y-92424840D01*
X124816564Y-92429225D01*
X124810726Y-92429500D01*
X124159589Y-92429500D01*
X124143972Y-92427776D01*
X124143945Y-92428062D01*
X124136183Y-92427327D01*
X124067055Y-92429500D01*
X124037502Y-92429500D01*
X124036781Y-92429590D01*
X124030609Y-92430369D01*
X124024797Y-92430826D01*
X123978224Y-92432290D01*
X123978221Y-92432291D01*
X123958978Y-92437881D01*
X123939935Y-92441825D01*
X123920056Y-92444336D01*
X123920055Y-92444337D01*
X123876730Y-92461490D01*
X123871204Y-92463382D01*
X123826460Y-92476383D01*
X123826456Y-92476385D01*
X123809217Y-92486580D01*
X123791750Y-92495137D01*
X123773121Y-92502512D01*
X123773119Y-92502513D01*
X123735416Y-92529906D01*
X123730534Y-92533112D01*
X123690432Y-92556828D01*
X123676260Y-92571000D01*
X123661475Y-92583628D01*
X123645264Y-92595407D01*
X123615561Y-92631310D01*
X123611629Y-92635631D01*
X123151208Y-93096051D01*
X123138951Y-93105872D01*
X123139134Y-93106093D01*
X123133123Y-93111065D01*
X123085772Y-93161488D01*
X123064889Y-93182371D01*
X123064877Y-93182384D01*
X123060621Y-93187869D01*
X123056837Y-93192299D01*
X123024937Y-93226270D01*
X123024936Y-93226272D01*
X123015284Y-93243828D01*
X123004610Y-93260078D01*
X122992329Y-93275913D01*
X122992324Y-93275920D01*
X122973815Y-93318690D01*
X122971245Y-93323936D01*
X122948803Y-93364758D01*
X122943822Y-93384159D01*
X122937521Y-93402562D01*
X122929562Y-93420954D01*
X122929561Y-93420957D01*
X122922271Y-93466979D01*
X122921087Y-93472698D01*
X122909501Y-93517824D01*
X122909500Y-93517834D01*
X122909500Y-93537868D01*
X122907973Y-93557268D01*
X122904839Y-93577046D01*
X122909224Y-93623432D01*
X122909499Y-93629269D01*
X122909499Y-95652057D01*
X122889814Y-95719096D01*
X122837010Y-95764851D01*
X122767852Y-95774795D01*
X122704296Y-95745770D01*
X122701961Y-95743694D01*
X122586041Y-95638019D01*
X122586039Y-95638017D01*
X122412642Y-95530655D01*
X122412635Y-95530651D01*
X122315254Y-95492926D01*
X122222456Y-95456976D01*
X122021976Y-95419500D01*
X121818024Y-95419500D01*
X121617544Y-95456976D01*
X121617541Y-95456976D01*
X121617541Y-95456977D01*
X121427364Y-95530651D01*
X121427357Y-95530655D01*
X121253960Y-95638017D01*
X121253958Y-95638019D01*
X121103237Y-95775418D01*
X121050521Y-95845227D01*
X120994412Y-95886863D01*
X120951567Y-95894500D01*
X119462743Y-95894500D01*
X119447122Y-95892775D01*
X119447096Y-95893061D01*
X119439334Y-95892327D01*
X119439333Y-95892327D01*
X119370186Y-95894500D01*
X119340649Y-95894500D01*
X119333766Y-95895369D01*
X119327949Y-95895826D01*
X119281373Y-95897290D01*
X119262129Y-95902881D01*
X119243079Y-95906825D01*
X119223211Y-95909334D01*
X119179884Y-95926488D01*
X119174358Y-95928379D01*
X119129614Y-95941379D01*
X119129610Y-95941381D01*
X119112366Y-95951579D01*
X119094905Y-95960133D01*
X119076274Y-95967510D01*
X119076262Y-95967517D01*
X119038570Y-95994902D01*
X119033687Y-95998109D01*
X118993580Y-96021829D01*
X118979414Y-96035995D01*
X118964624Y-96048627D01*
X118948414Y-96060404D01*
X118948411Y-96060407D01*
X118918710Y-96096309D01*
X118914777Y-96100631D01*
X114877228Y-100138179D01*
X114815905Y-100171664D01*
X114749284Y-100167779D01*
X114669616Y-100140429D01*
X114424335Y-100099500D01*
X114175665Y-100099500D01*
X113930383Y-100140429D01*
X113695197Y-100221169D01*
X113695188Y-100221172D01*
X113476493Y-100339524D01*
X113280257Y-100492261D01*
X113111833Y-100675217D01*
X112975826Y-100883393D01*
X112875936Y-101111118D01*
X112814892Y-101352175D01*
X112814890Y-101352187D01*
X112794357Y-101599994D01*
X112794357Y-101600005D01*
X108200500Y-101600005D01*
X108200499Y-100552128D01*
X108194091Y-100492517D01*
X108174844Y-100440914D01*
X108143797Y-100357671D01*
X108143793Y-100357664D01*
X108057547Y-100242455D01*
X108057544Y-100242452D01*
X107942335Y-100156206D01*
X107942328Y-100156202D01*
X107807482Y-100105908D01*
X107807483Y-100105908D01*
X107747883Y-100099501D01*
X107747881Y-100099500D01*
X107747873Y-100099500D01*
X107747864Y-100099500D01*
X105652129Y-100099500D01*
X105652123Y-100099501D01*
X105592516Y-100105908D01*
X105457671Y-100156202D01*
X105457664Y-100156206D01*
X105342455Y-100242452D01*
X105342452Y-100242455D01*
X105256206Y-100357664D01*
X105256202Y-100357671D01*
X105205908Y-100492517D01*
X105199501Y-100552116D01*
X105199501Y-100552123D01*
X105199500Y-100552135D01*
X105199500Y-102647870D01*
X99060500Y-102647870D01*
X99060500Y-88967763D01*
X99745787Y-88967763D01*
X99775413Y-89237013D01*
X99775415Y-89237024D01*
X99843926Y-89499082D01*
X99843928Y-89499088D01*
X99949870Y-89748390D01*
X100021998Y-89866575D01*
X100090979Y-89979605D01*
X100090986Y-89979615D01*
X100264253Y-90187819D01*
X100264259Y-90187824D01*
X100465998Y-90368582D01*
X100691910Y-90518044D01*
X100937176Y-90633020D01*
X100937183Y-90633022D01*
X100937185Y-90633023D01*
X101196557Y-90711057D01*
X101196564Y-90711058D01*
X101196569Y-90711060D01*
X101464561Y-90750500D01*
X101464566Y-90750500D01*
X101667636Y-90750500D01*
X101719133Y-90746730D01*
X101870156Y-90735677D01*
X101982758Y-90710593D01*
X102134546Y-90676782D01*
X102134548Y-90676781D01*
X102134553Y-90676780D01*
X102387558Y-90580014D01*
X102623777Y-90447441D01*
X102838177Y-90281888D01*
X103026186Y-90086881D01*
X103183799Y-89866579D01*
X103257787Y-89722669D01*
X103307649Y-89625690D01*
X103307651Y-89625684D01*
X103307656Y-89625675D01*
X103395118Y-89369305D01*
X103444319Y-89102933D01*
X103449259Y-88967763D01*
X132765787Y-88967763D01*
X132795413Y-89237013D01*
X132795415Y-89237024D01*
X132863926Y-89499082D01*
X132863928Y-89499088D01*
X132969870Y-89748390D01*
X133041998Y-89866575D01*
X133110979Y-89979605D01*
X133110986Y-89979615D01*
X133284253Y-90187819D01*
X133284259Y-90187824D01*
X133485998Y-90368582D01*
X133711910Y-90518044D01*
X133957176Y-90633020D01*
X133957183Y-90633022D01*
X133957185Y-90633023D01*
X134216557Y-90711057D01*
X134216564Y-90711058D01*
X134216569Y-90711060D01*
X134484561Y-90750500D01*
X134484566Y-90750500D01*
X134687636Y-90750500D01*
X134739133Y-90746730D01*
X134890156Y-90735677D01*
X135002758Y-90710593D01*
X135154546Y-90676782D01*
X135154548Y-90676781D01*
X135154553Y-90676780D01*
X135407558Y-90580014D01*
X135643777Y-90447441D01*
X135858177Y-90281888D01*
X136046186Y-90086881D01*
X136203799Y-89866579D01*
X136277787Y-89722669D01*
X136327649Y-89625690D01*
X136327651Y-89625684D01*
X136327656Y-89625675D01*
X136415118Y-89369305D01*
X136464319Y-89102933D01*
X136474212Y-88832235D01*
X136444586Y-88562982D01*
X136376072Y-88300912D01*
X136270130Y-88051610D01*
X136129018Y-87820390D01*
X136039747Y-87713119D01*
X135955746Y-87612180D01*
X135955740Y-87612175D01*
X135754002Y-87431418D01*
X135528092Y-87281957D01*
X135528090Y-87281956D01*
X135282824Y-87166980D01*
X135282819Y-87166978D01*
X135282814Y-87166976D01*
X135023442Y-87088942D01*
X135023428Y-87088939D01*
X134907791Y-87071921D01*
X134755439Y-87049500D01*
X134552369Y-87049500D01*
X134552364Y-87049500D01*
X134349844Y-87064323D01*
X134349831Y-87064325D01*
X134085453Y-87123217D01*
X134085446Y-87123220D01*
X133832439Y-87219987D01*
X133596226Y-87352557D01*
X133381822Y-87518112D01*
X133193822Y-87713109D01*
X133193816Y-87713116D01*
X133036202Y-87933419D01*
X133036199Y-87933424D01*
X132912350Y-88174309D01*
X132912343Y-88174327D01*
X132824884Y-88430685D01*
X132824881Y-88430699D01*
X132775681Y-88697068D01*
X132775680Y-88697075D01*
X132765787Y-88967763D01*
X103449259Y-88967763D01*
X103454212Y-88832235D01*
X103424586Y-88562982D01*
X103356072Y-88300912D01*
X103250130Y-88051610D01*
X103109018Y-87820390D01*
X103019747Y-87713119D01*
X102935746Y-87612180D01*
X102935740Y-87612175D01*
X102734002Y-87431418D01*
X102508092Y-87281957D01*
X102508090Y-87281956D01*
X102262824Y-87166980D01*
X102262819Y-87166978D01*
X102262814Y-87166976D01*
X102003442Y-87088942D01*
X102003428Y-87088939D01*
X101887791Y-87071921D01*
X101735439Y-87049500D01*
X101532369Y-87049500D01*
X101532364Y-87049500D01*
X101329844Y-87064323D01*
X101329831Y-87064325D01*
X101065453Y-87123217D01*
X101065446Y-87123220D01*
X100812439Y-87219987D01*
X100576226Y-87352557D01*
X100361822Y-87518112D01*
X100173822Y-87713109D01*
X100173816Y-87713116D01*
X100016202Y-87933419D01*
X100016199Y-87933424D01*
X99892350Y-88174309D01*
X99892343Y-88174327D01*
X99804884Y-88430685D01*
X99804881Y-88430699D01*
X99755681Y-88697068D01*
X99755680Y-88697075D01*
X99745787Y-88967763D01*
X99060500Y-88967763D01*
X99060500Y-86484500D01*
X99080185Y-86417461D01*
X99132989Y-86371706D01*
X99184500Y-86360500D01*
X137035500Y-86360500D01*
X137102539Y-86380185D01*
G37*
%TD.AperFunction*%
%TA.AperFunction,NonConductor*%
G36*
X125528703Y-94625146D02*
G01*
X126274399Y-95370841D01*
X126307884Y-95432164D01*
X126302900Y-95501855D01*
X126261028Y-95557789D01*
X126243540Y-95568737D01*
X126202314Y-95589991D01*
X126037116Y-95719905D01*
X126037111Y-95719910D01*
X125910425Y-95866112D01*
X125851647Y-95903885D01*
X125781777Y-95903885D01*
X125729032Y-95872589D01*
X125121819Y-95265375D01*
X125088334Y-95204052D01*
X125085500Y-95177694D01*
X125085500Y-94953690D01*
X125105185Y-94886651D01*
X125125962Y-94862053D01*
X125276763Y-94724580D01*
X125276763Y-94724579D01*
X125276764Y-94724579D01*
X125342070Y-94638099D01*
X125398175Y-94596465D01*
X125467887Y-94591772D01*
X125528703Y-94625146D01*
G37*
%TD.AperFunction*%
M02*
