%TF.GenerationSoftware,KiCad,Pcbnew,7.0.7*%
%TF.CreationDate,2024-02-26T23:05:05+05:30*%
%TF.ProjectId,ABC,4142432e-6b69-4636-9164-5f7063625858,v01*%
%TF.SameCoordinates,Original*%
%TF.FileFunction,Copper,L1,Top*%
%TF.FilePolarity,Positive*%
%FSLAX46Y46*%
G04 Gerber Fmt 4.6, Leading zero omitted, Abs format (unit mm)*
G04 Created by KiCad (PCBNEW 7.0.7) date 2024-02-26 23:05:05*
%MOMM*%
%LPD*%
G01*
G04 APERTURE LIST*
%TA.AperFunction,ComponentPad*%
%ADD10R,1.350000X1.350000*%
%TD*%
%TA.AperFunction,ComponentPad*%
%ADD11O,1.350000X1.350000*%
%TD*%
%TA.AperFunction,ComponentPad*%
%ADD12C,1.620000*%
%TD*%
%TA.AperFunction,ComponentPad*%
%ADD13C,2.400000*%
%TD*%
%TA.AperFunction,ComponentPad*%
%ADD14O,2.400000X2.400000*%
%TD*%
%TA.AperFunction,ComponentPad*%
%ADD15O,1.200000X1.200000*%
%TD*%
%TA.AperFunction,ComponentPad*%
%ADD16O,1.600000X1.200000*%
%TD*%
%TA.AperFunction,SMDPad,CuDef*%
%ADD17R,0.900000X2.000000*%
%TD*%
%TA.AperFunction,ComponentPad*%
%ADD18R,2.800000X2.800000*%
%TD*%
%TA.AperFunction,ComponentPad*%
%ADD19O,2.800000X2.800000*%
%TD*%
%TA.AperFunction,ComponentPad*%
%ADD20R,2.000000X2.000000*%
%TD*%
%TA.AperFunction,ComponentPad*%
%ADD21C,2.000000*%
%TD*%
%TA.AperFunction,Conductor*%
%ADD22C,0.250000*%
%TD*%
G04 APERTURE END LIST*
D10*
%TO.P,TH1,1*%
%TO.N,Net-(BZ1--)*%
X127000000Y-108220000D03*
D11*
%TO.P,TH1,2*%
%TO.N,Net-(D1-A)*%
X127000000Y-110220000D03*
%TD*%
D12*
%TO.P,RV1,1,1*%
%TO.N,Net-(D1-A)*%
X121920000Y-114380000D03*
%TO.P,RV1,2,2*%
%TO.N,Net-(J1-Pin_2)*%
X124420000Y-116880000D03*
%TO.P,RV1,3,3*%
X121920000Y-119380000D03*
%TD*%
D13*
%TO.P,R1,1*%
%TO.N,Net-(D1-K)*%
X110490000Y-144780000D03*
D14*
%TO.P,R1,2*%
%TO.N,Net-(Q1-B)*%
X123190000Y-144780000D03*
%TD*%
D15*
%TO.P,Q1,3,C*%
%TO.N,Net-(BZ1-+)*%
X121920000Y-96520000D03*
%TO.P,Q1,2,B*%
%TO.N,Net-(Q1-B)*%
X124460000Y-93980000D03*
D16*
%TO.P,Q1,1,E*%
%TO.N,Net-(J1-Pin_2)*%
X127000000Y-96520000D03*
%TD*%
D17*
%TO.P,J1,1,Pin_1*%
%TO.N,Net-(BZ1--)*%
X107220000Y-113640000D03*
%TO.P,J1,2,Pin_2*%
%TO.N,Net-(J1-Pin_2)*%
X109220000Y-116840000D03*
%TO.P,J1,3,Pin_3*%
%TO.N,GND*%
X111220000Y-113640000D03*
%TD*%
D18*
%TO.P,D1,1,K*%
%TO.N,Net-(D1-K)*%
X121920000Y-132080000D03*
D19*
%TO.P,D1,2,A*%
%TO.N,Net-(D1-A)*%
X132080000Y-132080000D03*
%TD*%
D20*
%TO.P,C1,1*%
%TO.N,Net-(D1-K)*%
X109220000Y-132080000D03*
D21*
%TO.P,C1,2*%
%TO.N,Net-(J1-Pin_2)*%
X112720000Y-132080000D03*
%TD*%
D20*
%TO.P,BZ1,1,-*%
%TO.N,Net-(BZ1--)*%
X106700000Y-101600000D03*
D21*
%TO.P,BZ1,2,+*%
%TO.N,Net-(BZ1-+)*%
X114300000Y-101600000D03*
%TD*%
D22*
%TO.N,Net-(D1-A)*%
X126080000Y-110220000D02*
X127000000Y-110220000D01*
X121920000Y-114380000D02*
X126080000Y-110220000D01*
%TO.N,Net-(BZ1--)*%
X106700000Y-102280000D02*
X112640000Y-108220000D01*
X106700000Y-101600000D02*
X106700000Y-102280000D01*
X107220000Y-113640000D02*
X112640000Y-108220000D01*
X112640000Y-108220000D02*
X127000000Y-108220000D01*
%TO.N,Net-(D1-A)*%
X121920000Y-117774867D02*
X121920000Y-114380000D01*
X132080000Y-127934867D02*
X121920000Y-117774867D01*
X132080000Y-132080000D02*
X132080000Y-127934867D01*
%TO.N,Net-(J1-Pin_2)*%
X109220000Y-128580000D02*
X112720000Y-132080000D01*
X109220000Y-116840000D02*
X109220000Y-128580000D01*
X119380000Y-116840000D02*
X121920000Y-119380000D01*
X109220000Y-116840000D02*
X119380000Y-116840000D01*
%TO.N,Net-(BZ1--)*%
X107220000Y-113640000D02*
X107220000Y-113760000D01*
%TD*%
%TA.AperFunction,Conductor*%
%TO.N,GND*%
G36*
X137102539Y-86380185D02*
G01*
X137148294Y-86432989D01*
X137159500Y-86484500D01*
X137159500Y-152275500D01*
X137139815Y-152342539D01*
X137087011Y-152388294D01*
X137035500Y-152399500D01*
X99184500Y-152399500D01*
X99117461Y-152379815D01*
X99071706Y-152327011D01*
X99060500Y-152275500D01*
X99060500Y-149927763D01*
X99745787Y-149927763D01*
X99775413Y-150197013D01*
X99775415Y-150197024D01*
X99843926Y-150459082D01*
X99843928Y-150459088D01*
X99949870Y-150708390D01*
X100021998Y-150826575D01*
X100090979Y-150939605D01*
X100090986Y-150939615D01*
X100264253Y-151147819D01*
X100264259Y-151147824D01*
X100465998Y-151328582D01*
X100691910Y-151478044D01*
X100937176Y-151593020D01*
X100937183Y-151593022D01*
X100937185Y-151593023D01*
X101196557Y-151671057D01*
X101196564Y-151671058D01*
X101196569Y-151671060D01*
X101464561Y-151710500D01*
X101464566Y-151710500D01*
X101667636Y-151710500D01*
X101719133Y-151706730D01*
X101870156Y-151695677D01*
X101982758Y-151670593D01*
X102134546Y-151636782D01*
X102134548Y-151636781D01*
X102134553Y-151636780D01*
X102387558Y-151540014D01*
X102623777Y-151407441D01*
X102838177Y-151241888D01*
X103026186Y-151046881D01*
X103183799Y-150826579D01*
X103257787Y-150682669D01*
X103307649Y-150585690D01*
X103307651Y-150585684D01*
X103307656Y-150585675D01*
X103395118Y-150329305D01*
X103444319Y-150062933D01*
X103449259Y-149927763D01*
X132765787Y-149927763D01*
X132795413Y-150197013D01*
X132795415Y-150197024D01*
X132863926Y-150459082D01*
X132863928Y-150459088D01*
X132969870Y-150708390D01*
X133041998Y-150826575D01*
X133110979Y-150939605D01*
X133110986Y-150939615D01*
X133284253Y-151147819D01*
X133284259Y-151147824D01*
X133485998Y-151328582D01*
X133711910Y-151478044D01*
X133957176Y-151593020D01*
X133957183Y-151593022D01*
X133957185Y-151593023D01*
X134216557Y-151671057D01*
X134216564Y-151671058D01*
X134216569Y-151671060D01*
X134484561Y-151710500D01*
X134484566Y-151710500D01*
X134687636Y-151710500D01*
X134739133Y-151706730D01*
X134890156Y-151695677D01*
X135002758Y-151670593D01*
X135154546Y-151636782D01*
X135154548Y-151636781D01*
X135154553Y-151636780D01*
X135407558Y-151540014D01*
X135643777Y-151407441D01*
X135858177Y-151241888D01*
X136046186Y-151046881D01*
X136203799Y-150826579D01*
X136277787Y-150682669D01*
X136327649Y-150585690D01*
X136327651Y-150585684D01*
X136327656Y-150585675D01*
X136415118Y-150329305D01*
X136464319Y-150062933D01*
X136474212Y-149792235D01*
X136444586Y-149522982D01*
X136376072Y-149260912D01*
X136270130Y-149011610D01*
X136129018Y-148780390D01*
X136039747Y-148673119D01*
X135955746Y-148572180D01*
X135955740Y-148572175D01*
X135754002Y-148391418D01*
X135528092Y-148241957D01*
X135528090Y-148241956D01*
X135282824Y-148126980D01*
X135282819Y-148126978D01*
X135282814Y-148126976D01*
X135023442Y-148048942D01*
X135023428Y-148048939D01*
X134907791Y-148031921D01*
X134755439Y-148009500D01*
X134552369Y-148009500D01*
X134552364Y-148009500D01*
X134349844Y-148024323D01*
X134349831Y-148024325D01*
X134085453Y-148083217D01*
X134085446Y-148083220D01*
X133832439Y-148179987D01*
X133596226Y-148312557D01*
X133381822Y-148478112D01*
X133193822Y-148673109D01*
X133193816Y-148673116D01*
X133036202Y-148893419D01*
X133036199Y-148893424D01*
X132912350Y-149134309D01*
X132912343Y-149134327D01*
X132824884Y-149390685D01*
X132824881Y-149390699D01*
X132775681Y-149657068D01*
X132775680Y-149657075D01*
X132765787Y-149927763D01*
X103449259Y-149927763D01*
X103454212Y-149792235D01*
X103424586Y-149522982D01*
X103356072Y-149260912D01*
X103250130Y-149011610D01*
X103109018Y-148780390D01*
X103019747Y-148673119D01*
X102935746Y-148572180D01*
X102935740Y-148572175D01*
X102734002Y-148391418D01*
X102508092Y-148241957D01*
X102508090Y-148241956D01*
X102262824Y-148126980D01*
X102262819Y-148126978D01*
X102262814Y-148126976D01*
X102003442Y-148048942D01*
X102003428Y-148048939D01*
X101887791Y-148031921D01*
X101735439Y-148009500D01*
X101532369Y-148009500D01*
X101532364Y-148009500D01*
X101329844Y-148024323D01*
X101329831Y-148024325D01*
X101065453Y-148083217D01*
X101065446Y-148083220D01*
X100812439Y-148179987D01*
X100576226Y-148312557D01*
X100361822Y-148478112D01*
X100173822Y-148673109D01*
X100173816Y-148673116D01*
X100016202Y-148893419D01*
X100016199Y-148893424D01*
X99892350Y-149134309D01*
X99892343Y-149134327D01*
X99804884Y-149390685D01*
X99804881Y-149390699D01*
X99755681Y-149657068D01*
X99755680Y-149657075D01*
X99745787Y-149927763D01*
X99060500Y-149927763D01*
X99060500Y-144780004D01*
X108784732Y-144780004D01*
X108803777Y-145034154D01*
X108803778Y-145034157D01*
X108860492Y-145282637D01*
X108953607Y-145519888D01*
X109081041Y-145740612D01*
X109239950Y-145939877D01*
X109426783Y-146113232D01*
X109637366Y-146256805D01*
X109637371Y-146256807D01*
X109637372Y-146256808D01*
X109637373Y-146256809D01*
X109759328Y-146315538D01*
X109866992Y-146367387D01*
X109866993Y-146367387D01*
X109866996Y-146367389D01*
X110110542Y-146442513D01*
X110362565Y-146480500D01*
X110617435Y-146480500D01*
X110869458Y-146442513D01*
X111113004Y-146367389D01*
X111342634Y-146256805D01*
X111553217Y-146113232D01*
X111740050Y-145939877D01*
X111898959Y-145740612D01*
X112026393Y-145519888D01*
X112119508Y-145282637D01*
X112176222Y-145034157D01*
X112195268Y-144780004D01*
X121484732Y-144780004D01*
X121503777Y-145034154D01*
X121503778Y-145034157D01*
X121560492Y-145282637D01*
X121653607Y-145519888D01*
X121781041Y-145740612D01*
X121939950Y-145939877D01*
X122126783Y-146113232D01*
X122337366Y-146256805D01*
X122337371Y-146256807D01*
X122337372Y-146256808D01*
X122337373Y-146256809D01*
X122459328Y-146315538D01*
X122566992Y-146367387D01*
X122566993Y-146367387D01*
X122566996Y-146367389D01*
X122810542Y-146442513D01*
X123062565Y-146480500D01*
X123317435Y-146480500D01*
X123569458Y-146442513D01*
X123813004Y-146367389D01*
X124042634Y-146256805D01*
X124253217Y-146113232D01*
X124440050Y-145939877D01*
X124598959Y-145740612D01*
X124726393Y-145519888D01*
X124819508Y-145282637D01*
X124876222Y-145034157D01*
X124895268Y-144780000D01*
X124876222Y-144525843D01*
X124819508Y-144277363D01*
X124726393Y-144040112D01*
X124598959Y-143819388D01*
X124440050Y-143620123D01*
X124253217Y-143446768D01*
X124042634Y-143303195D01*
X124042630Y-143303193D01*
X124042627Y-143303191D01*
X124042626Y-143303190D01*
X123813006Y-143192612D01*
X123813008Y-143192612D01*
X123569466Y-143117489D01*
X123569462Y-143117488D01*
X123569458Y-143117487D01*
X123448231Y-143099214D01*
X123317440Y-143079500D01*
X123317435Y-143079500D01*
X123062565Y-143079500D01*
X123062559Y-143079500D01*
X122905609Y-143103157D01*
X122810542Y-143117487D01*
X122810538Y-143117488D01*
X122810539Y-143117488D01*
X122810533Y-143117489D01*
X122566992Y-143192612D01*
X122337373Y-143303190D01*
X122337372Y-143303191D01*
X122126782Y-143446768D01*
X121939952Y-143620121D01*
X121939950Y-143620123D01*
X121781041Y-143819388D01*
X121653608Y-144040109D01*
X121560492Y-144277362D01*
X121560490Y-144277369D01*
X121503777Y-144525845D01*
X121484732Y-144779995D01*
X121484732Y-144780004D01*
X112195268Y-144780004D01*
X112195268Y-144780000D01*
X112176222Y-144525843D01*
X112119508Y-144277363D01*
X112026393Y-144040112D01*
X111898959Y-143819388D01*
X111740050Y-143620123D01*
X111553217Y-143446768D01*
X111342634Y-143303195D01*
X111342630Y-143303193D01*
X111342627Y-143303191D01*
X111342626Y-143303190D01*
X111113006Y-143192612D01*
X111113008Y-143192612D01*
X110869466Y-143117489D01*
X110869462Y-143117488D01*
X110869458Y-143117487D01*
X110748231Y-143099214D01*
X110617440Y-143079500D01*
X110617435Y-143079500D01*
X110362565Y-143079500D01*
X110362559Y-143079500D01*
X110205609Y-143103157D01*
X110110542Y-143117487D01*
X110110538Y-143117488D01*
X110110539Y-143117488D01*
X110110533Y-143117489D01*
X109866992Y-143192612D01*
X109637373Y-143303190D01*
X109637372Y-143303191D01*
X109426782Y-143446768D01*
X109239952Y-143620121D01*
X109239950Y-143620123D01*
X109081041Y-143819388D01*
X108953608Y-144040109D01*
X108860492Y-144277362D01*
X108860490Y-144277369D01*
X108803777Y-144525845D01*
X108784732Y-144779995D01*
X108784732Y-144780004D01*
X99060500Y-144780004D01*
X99060500Y-102647870D01*
X105199500Y-102647870D01*
X105199501Y-102647876D01*
X105205908Y-102707483D01*
X105256202Y-102842328D01*
X105256206Y-102842335D01*
X105342452Y-102957544D01*
X105342455Y-102957547D01*
X105457664Y-103043793D01*
X105457671Y-103043797D01*
X105592517Y-103094091D01*
X105592516Y-103094091D01*
X105599444Y-103094835D01*
X105652127Y-103100500D01*
X106584547Y-103100499D01*
X106651586Y-103120183D01*
X106672228Y-103136818D01*
X111667728Y-108132318D01*
X111701213Y-108193641D01*
X111696229Y-108263333D01*
X111667728Y-108307680D01*
X107866399Y-112109008D01*
X107805076Y-112142493D01*
X107765465Y-112144616D01*
X107717873Y-112139500D01*
X107717865Y-112139500D01*
X106722129Y-112139500D01*
X106722123Y-112139501D01*
X106662516Y-112145908D01*
X106527671Y-112196202D01*
X106527664Y-112196206D01*
X106412455Y-112282452D01*
X106412452Y-112282455D01*
X106326206Y-112397664D01*
X106326202Y-112397671D01*
X106275908Y-112532517D01*
X106269501Y-112592116D01*
X106269500Y-112592135D01*
X106269500Y-114687870D01*
X106269501Y-114687876D01*
X106275908Y-114747483D01*
X106326202Y-114882328D01*
X106326206Y-114882335D01*
X106412452Y-114997544D01*
X106412455Y-114997547D01*
X106527664Y-115083793D01*
X106527671Y-115083797D01*
X106662517Y-115134091D01*
X106662516Y-115134091D01*
X106669444Y-115134835D01*
X106722127Y-115140500D01*
X107717872Y-115140499D01*
X107777483Y-115134091D01*
X107912331Y-115083796D01*
X108027546Y-114997546D01*
X108113796Y-114882331D01*
X108164091Y-114747483D01*
X108170500Y-114687873D01*
X108170499Y-113890000D01*
X110270000Y-113890000D01*
X110270000Y-114687844D01*
X110276401Y-114747372D01*
X110276403Y-114747379D01*
X110326645Y-114882086D01*
X110326649Y-114882093D01*
X110412809Y-114997187D01*
X110412812Y-114997190D01*
X110527906Y-115083350D01*
X110527913Y-115083354D01*
X110662620Y-115133596D01*
X110662627Y-115133598D01*
X110722155Y-115139999D01*
X110722172Y-115140000D01*
X110970000Y-115140000D01*
X110970000Y-113890000D01*
X111470000Y-113890000D01*
X111470000Y-115140000D01*
X111717828Y-115140000D01*
X111717844Y-115139999D01*
X111777372Y-115133598D01*
X111777379Y-115133596D01*
X111912086Y-115083354D01*
X111912093Y-115083350D01*
X112027187Y-114997190D01*
X112027190Y-114997187D01*
X112113350Y-114882093D01*
X112113354Y-114882086D01*
X112163596Y-114747379D01*
X112163598Y-114747372D01*
X112169999Y-114687844D01*
X112170000Y-114687827D01*
X112170000Y-113890000D01*
X111470000Y-113890000D01*
X110970000Y-113890000D01*
X110270000Y-113890000D01*
X108170499Y-113890000D01*
X108170499Y-113625450D01*
X108190183Y-113558412D01*
X108206813Y-113537775D01*
X108354588Y-113390000D01*
X110270000Y-113390000D01*
X110970000Y-113390000D01*
X110970000Y-112140000D01*
X111470000Y-112140000D01*
X111470000Y-113390000D01*
X112170000Y-113390000D01*
X112170000Y-112592172D01*
X112169999Y-112592155D01*
X112163598Y-112532627D01*
X112163596Y-112532620D01*
X112113354Y-112397913D01*
X112113350Y-112397906D01*
X112027190Y-112282812D01*
X112027187Y-112282809D01*
X111912093Y-112196649D01*
X111912086Y-112196645D01*
X111777379Y-112146403D01*
X111777372Y-112146401D01*
X111717844Y-112140000D01*
X111470000Y-112140000D01*
X110970000Y-112140000D01*
X110722155Y-112140000D01*
X110662627Y-112146401D01*
X110662620Y-112146403D01*
X110527913Y-112196645D01*
X110527906Y-112196649D01*
X110412812Y-112282809D01*
X110412809Y-112282812D01*
X110326649Y-112397906D01*
X110326645Y-112397913D01*
X110276403Y-112532620D01*
X110276401Y-112532627D01*
X110270000Y-112592155D01*
X110270000Y-113390000D01*
X108354588Y-113390000D01*
X112862770Y-108881819D01*
X112924094Y-108848334D01*
X112950452Y-108845500D01*
X125702649Y-108845500D01*
X125769688Y-108865185D01*
X125815443Y-108917989D01*
X125825939Y-108956248D01*
X125830908Y-109002483D01*
X125881202Y-109137328D01*
X125881206Y-109137335D01*
X125950358Y-109229709D01*
X125967454Y-109252546D01*
X126053105Y-109316664D01*
X126094975Y-109372597D01*
X126099959Y-109442289D01*
X126077747Y-109490656D01*
X126026492Y-109558529D01*
X125970384Y-109600166D01*
X125942861Y-109605071D01*
X125943083Y-109606825D01*
X125923204Y-109609336D01*
X125923203Y-109609337D01*
X125879878Y-109626490D01*
X125874352Y-109628382D01*
X125829608Y-109641383D01*
X125829604Y-109641385D01*
X125812365Y-109651580D01*
X125794898Y-109660137D01*
X125776269Y-109667512D01*
X125776267Y-109667513D01*
X125738564Y-109694906D01*
X125733682Y-109698112D01*
X125693580Y-109721828D01*
X125679408Y-109736000D01*
X125664623Y-109748628D01*
X125648412Y-109760407D01*
X125618709Y-109796310D01*
X125614777Y-109800631D01*
X122342986Y-113072421D01*
X122281663Y-113105906D01*
X122223212Y-113104515D01*
X122148440Y-113084480D01*
X122148436Y-113084479D01*
X122148435Y-113084479D01*
X122148434Y-113084478D01*
X122148429Y-113084478D01*
X121920002Y-113064494D01*
X121919998Y-113064494D01*
X121691570Y-113084478D01*
X121691563Y-113084479D01*
X121470074Y-113143827D01*
X121470070Y-113143829D01*
X121262247Y-113240738D01*
X121074409Y-113372264D01*
X121074407Y-113372265D01*
X121074404Y-113372268D01*
X120912268Y-113534404D01*
X120780738Y-113722247D01*
X120683830Y-113930068D01*
X120683827Y-113930074D01*
X120624479Y-114151563D01*
X120624478Y-114151570D01*
X120604494Y-114379997D01*
X120604494Y-114380002D01*
X120624478Y-114608429D01*
X120624479Y-114608436D01*
X120683827Y-114829925D01*
X120683828Y-114829927D01*
X120683829Y-114829930D01*
X120780738Y-115037753D01*
X120912264Y-115225591D01*
X121074409Y-115387736D01*
X121241626Y-115504823D01*
X121285248Y-115559397D01*
X121294500Y-115606395D01*
X121294500Y-117570547D01*
X121274815Y-117637586D01*
X121222011Y-117683341D01*
X121152853Y-117693285D01*
X121089297Y-117664260D01*
X121082819Y-117658228D01*
X119880803Y-116456212D01*
X119870980Y-116443950D01*
X119870759Y-116444134D01*
X119865786Y-116438123D01*
X119857215Y-116430074D01*
X119815364Y-116390773D01*
X119804919Y-116380328D01*
X119794475Y-116369883D01*
X119788986Y-116365625D01*
X119784561Y-116361847D01*
X119750582Y-116329938D01*
X119750580Y-116329936D01*
X119750577Y-116329935D01*
X119733029Y-116320288D01*
X119716763Y-116309604D01*
X119700933Y-116297325D01*
X119658168Y-116278818D01*
X119652922Y-116276248D01*
X119612093Y-116253803D01*
X119612092Y-116253802D01*
X119592693Y-116248822D01*
X119574281Y-116242518D01*
X119555898Y-116234562D01*
X119555892Y-116234560D01*
X119509874Y-116227272D01*
X119504152Y-116226087D01*
X119459021Y-116214500D01*
X119459019Y-116214500D01*
X119438984Y-116214500D01*
X119419586Y-116212973D01*
X119412162Y-116211797D01*
X119399805Y-116209840D01*
X119399804Y-116209840D01*
X119353416Y-116214225D01*
X119347578Y-116214500D01*
X110294499Y-116214500D01*
X110227460Y-116194815D01*
X110181705Y-116142011D01*
X110170499Y-116090500D01*
X110170499Y-115792129D01*
X110170498Y-115792123D01*
X110170497Y-115792116D01*
X110164091Y-115732517D01*
X110113796Y-115597669D01*
X110113795Y-115597668D01*
X110113793Y-115597664D01*
X110027547Y-115482455D01*
X110027544Y-115482452D01*
X109912335Y-115396206D01*
X109912328Y-115396202D01*
X109777482Y-115345908D01*
X109777483Y-115345908D01*
X109717883Y-115339501D01*
X109717881Y-115339500D01*
X109717873Y-115339500D01*
X109717864Y-115339500D01*
X108722129Y-115339500D01*
X108722123Y-115339501D01*
X108662516Y-115345908D01*
X108527671Y-115396202D01*
X108527664Y-115396206D01*
X108412455Y-115482452D01*
X108412452Y-115482455D01*
X108326206Y-115597664D01*
X108326202Y-115597671D01*
X108275908Y-115732517D01*
X108269501Y-115792116D01*
X108269501Y-115792123D01*
X108269500Y-115792135D01*
X108269500Y-117887870D01*
X108269501Y-117887876D01*
X108275908Y-117947483D01*
X108326202Y-118082328D01*
X108326206Y-118082335D01*
X108412452Y-118197544D01*
X108412455Y-118197547D01*
X108527663Y-118283792D01*
X108527665Y-118283793D01*
X108527669Y-118283796D01*
X108527673Y-118283797D01*
X108529924Y-118285027D01*
X108531746Y-118286849D01*
X108534769Y-118289112D01*
X108534443Y-118289546D01*
X108579331Y-118334431D01*
X108594500Y-118393861D01*
X108594500Y-128497255D01*
X108592775Y-128512872D01*
X108593061Y-128512899D01*
X108592326Y-128520665D01*
X108594500Y-128589814D01*
X108594500Y-128619343D01*
X108594501Y-128619360D01*
X108595368Y-128626231D01*
X108595826Y-128632050D01*
X108597290Y-128678624D01*
X108597291Y-128678627D01*
X108602880Y-128697867D01*
X108606824Y-128716911D01*
X108609336Y-128736791D01*
X108626490Y-128780119D01*
X108628382Y-128785647D01*
X108641381Y-128830388D01*
X108651580Y-128847634D01*
X108660138Y-128865103D01*
X108667514Y-128883732D01*
X108694898Y-128921423D01*
X108698106Y-128926307D01*
X108721827Y-128966416D01*
X108721833Y-128966424D01*
X108735990Y-128980580D01*
X108748628Y-128995376D01*
X108760405Y-129011586D01*
X108760406Y-129011587D01*
X108796309Y-129041288D01*
X108800620Y-129045210D01*
X109934910Y-130179500D01*
X110123229Y-130367819D01*
X110156714Y-130429142D01*
X110151730Y-130498834D01*
X110109858Y-130554767D01*
X110044394Y-130579184D01*
X110035548Y-130579500D01*
X108172129Y-130579500D01*
X108172123Y-130579501D01*
X108112516Y-130585908D01*
X107977671Y-130636202D01*
X107977664Y-130636206D01*
X107862455Y-130722452D01*
X107862452Y-130722455D01*
X107776206Y-130837664D01*
X107776202Y-130837671D01*
X107725908Y-130972517D01*
X107719501Y-131032116D01*
X107719500Y-131032135D01*
X107719500Y-133127870D01*
X107719501Y-133127876D01*
X107725908Y-133187483D01*
X107776202Y-133322328D01*
X107776206Y-133322335D01*
X107862452Y-133437544D01*
X107862455Y-133437547D01*
X107977664Y-133523793D01*
X107977671Y-133523797D01*
X108112517Y-133574091D01*
X108112516Y-133574091D01*
X108119444Y-133574835D01*
X108172127Y-133580500D01*
X110267872Y-133580499D01*
X110327483Y-133574091D01*
X110462331Y-133523796D01*
X110577546Y-133437546D01*
X110663796Y-133322331D01*
X110714091Y-133187483D01*
X110720500Y-133127873D01*
X110720499Y-131264450D01*
X110740184Y-131197412D01*
X110792987Y-131151657D01*
X110862146Y-131141713D01*
X110925702Y-131170738D01*
X110932180Y-131176770D01*
X111256338Y-131500928D01*
X111289823Y-131562251D01*
X111288863Y-131619049D01*
X111234892Y-131832174D01*
X111234890Y-131832187D01*
X111214357Y-132079994D01*
X111214357Y-132080005D01*
X111234890Y-132327812D01*
X111234892Y-132327824D01*
X111295936Y-132568881D01*
X111395826Y-132796606D01*
X111531833Y-133004782D01*
X111531836Y-133004785D01*
X111700256Y-133187738D01*
X111896491Y-133340474D01*
X112115190Y-133458828D01*
X112350386Y-133539571D01*
X112595665Y-133580500D01*
X112844335Y-133580500D01*
X113089614Y-133539571D01*
X113123698Y-133527870D01*
X120019500Y-133527870D01*
X120019501Y-133527876D01*
X120025908Y-133587483D01*
X120076202Y-133722328D01*
X120076206Y-133722335D01*
X120162452Y-133837544D01*
X120162455Y-133837547D01*
X120277664Y-133923793D01*
X120277671Y-133923797D01*
X120412517Y-133974091D01*
X120412516Y-133974091D01*
X120419444Y-133974835D01*
X120472127Y-133980500D01*
X123367872Y-133980499D01*
X123427483Y-133974091D01*
X123562331Y-133923796D01*
X123677546Y-133837546D01*
X123763796Y-133722331D01*
X123814091Y-133587483D01*
X123820500Y-133527873D01*
X123820499Y-130632128D01*
X123814091Y-130572517D01*
X123763796Y-130437669D01*
X123763795Y-130437668D01*
X123763793Y-130437664D01*
X123677547Y-130322455D01*
X123677544Y-130322452D01*
X123562335Y-130236206D01*
X123562328Y-130236202D01*
X123427482Y-130185908D01*
X123427483Y-130185908D01*
X123367883Y-130179501D01*
X123367881Y-130179500D01*
X123367873Y-130179500D01*
X123367864Y-130179500D01*
X120472129Y-130179500D01*
X120472123Y-130179501D01*
X120412516Y-130185908D01*
X120277671Y-130236202D01*
X120277664Y-130236206D01*
X120162455Y-130322452D01*
X120162452Y-130322455D01*
X120076206Y-130437664D01*
X120076202Y-130437671D01*
X120025908Y-130572517D01*
X120019501Y-130632116D01*
X120019501Y-130632123D01*
X120019500Y-130632135D01*
X120019500Y-133527870D01*
X113123698Y-133527870D01*
X113324810Y-133458828D01*
X113543509Y-133340474D01*
X113739744Y-133187738D01*
X113908164Y-133004785D01*
X114044173Y-132796607D01*
X114144063Y-132568881D01*
X114205108Y-132327821D01*
X114225643Y-132080000D01*
X114205108Y-131832179D01*
X114199198Y-131808840D01*
X114144063Y-131591118D01*
X114044173Y-131363393D01*
X113908166Y-131155217D01*
X113811206Y-131049891D01*
X113739744Y-130972262D01*
X113543509Y-130819526D01*
X113543507Y-130819525D01*
X113543506Y-130819524D01*
X113324811Y-130701172D01*
X113324802Y-130701169D01*
X113089616Y-130620429D01*
X112844335Y-130579500D01*
X112595665Y-130579500D01*
X112350386Y-130620428D01*
X112270713Y-130647780D01*
X112200914Y-130650929D01*
X112142770Y-130618179D01*
X109881819Y-128357228D01*
X109848334Y-128295905D01*
X109845500Y-128269547D01*
X109845500Y-118393861D01*
X109865185Y-118326822D01*
X109905418Y-118289362D01*
X109905231Y-118289112D01*
X109907565Y-118287364D01*
X109910076Y-118285027D01*
X109912323Y-118283798D01*
X109912331Y-118283796D01*
X110027546Y-118197546D01*
X110113796Y-118082331D01*
X110164091Y-117947483D01*
X110170500Y-117887873D01*
X110170500Y-117589500D01*
X110190185Y-117522461D01*
X110242989Y-117476706D01*
X110294500Y-117465500D01*
X119069548Y-117465500D01*
X119136587Y-117485185D01*
X119157229Y-117501819D01*
X120612421Y-118957011D01*
X120645906Y-119018334D01*
X120644515Y-119076784D01*
X120624480Y-119151559D01*
X120624479Y-119151566D01*
X120604494Y-119379997D01*
X120604494Y-119380002D01*
X120624478Y-119608429D01*
X120624479Y-119608436D01*
X120683827Y-119829925D01*
X120683828Y-119829927D01*
X120683829Y-119829930D01*
X120780738Y-120037753D01*
X120912264Y-120225591D01*
X121074409Y-120387736D01*
X121262247Y-120519262D01*
X121470070Y-120616171D01*
X121691565Y-120675521D01*
X121854732Y-120689796D01*
X121919998Y-120695506D01*
X121920000Y-120695506D01*
X121920002Y-120695506D01*
X121977108Y-120690509D01*
X122148435Y-120675521D01*
X122369930Y-120616171D01*
X122577753Y-120519262D01*
X122765591Y-120387736D01*
X122927736Y-120225591D01*
X123059262Y-120037753D01*
X123060432Y-120035242D01*
X123061241Y-120034324D01*
X123061967Y-120033067D01*
X123062219Y-120033212D01*
X123106594Y-119982802D01*
X123173784Y-119963641D01*
X123240668Y-119983847D01*
X123260499Y-119999956D01*
X131418181Y-128157638D01*
X131451666Y-128218961D01*
X131454500Y-128245319D01*
X131454500Y-130198813D01*
X131434815Y-130265852D01*
X131382011Y-130311607D01*
X131373834Y-130314994D01*
X131288493Y-130346825D01*
X131288481Y-130346830D01*
X131049892Y-130477109D01*
X131049891Y-130477110D01*
X130832259Y-130640028D01*
X130832247Y-130640038D01*
X130640038Y-130832247D01*
X130640028Y-130832259D01*
X130477110Y-131049891D01*
X130477109Y-131049892D01*
X130346830Y-131288480D01*
X130318889Y-131363393D01*
X130251825Y-131543199D01*
X130251824Y-131543202D01*
X130251823Y-131543206D01*
X130194040Y-131808832D01*
X130194039Y-131808839D01*
X130174645Y-132079998D01*
X130174645Y-132080001D01*
X130194039Y-132351160D01*
X130194040Y-132351167D01*
X130251823Y-132616793D01*
X130251825Y-132616801D01*
X130328330Y-132821920D01*
X130346830Y-132871519D01*
X130477109Y-133110107D01*
X130477110Y-133110108D01*
X130477113Y-133110113D01*
X130640029Y-133327742D01*
X130640033Y-133327746D01*
X130640038Y-133327752D01*
X130832247Y-133519961D01*
X130832253Y-133519966D01*
X130832258Y-133519971D01*
X131049887Y-133682887D01*
X131049891Y-133682889D01*
X131049892Y-133682890D01*
X131288481Y-133813169D01*
X131288480Y-133813169D01*
X131288484Y-133813170D01*
X131288487Y-133813172D01*
X131543199Y-133908175D01*
X131808840Y-133965961D01*
X132060604Y-133983967D01*
X132079999Y-133985355D01*
X132080000Y-133985355D01*
X132080001Y-133985355D01*
X132098100Y-133984060D01*
X132351160Y-133965961D01*
X132616801Y-133908175D01*
X132871513Y-133813172D01*
X132871517Y-133813169D01*
X132871519Y-133813169D01*
X133037882Y-133722328D01*
X133110113Y-133682887D01*
X133327742Y-133519971D01*
X133519971Y-133327742D01*
X133682887Y-133110113D01*
X133813172Y-132871513D01*
X133908175Y-132616801D01*
X133965961Y-132351160D01*
X133985355Y-132080000D01*
X133965961Y-131808840D01*
X133908175Y-131543199D01*
X133813172Y-131288487D01*
X133813170Y-131288484D01*
X133813169Y-131288480D01*
X133682890Y-131049892D01*
X133682889Y-131049891D01*
X133682887Y-131049887D01*
X133519971Y-130832258D01*
X133519966Y-130832253D01*
X133519961Y-130832247D01*
X133327752Y-130640038D01*
X133327746Y-130640033D01*
X133327742Y-130640029D01*
X133110113Y-130477113D01*
X133110108Y-130477110D01*
X133110107Y-130477109D01*
X132871518Y-130346830D01*
X132871505Y-130346825D01*
X132786164Y-130314994D01*
X132730232Y-130273123D01*
X132705815Y-130207659D01*
X132705499Y-130198839D01*
X132705499Y-128017616D01*
X132707224Y-128001995D01*
X132706938Y-128001968D01*
X132707671Y-127994208D01*
X132707673Y-127994200D01*
X132705500Y-127925052D01*
X132705500Y-127895517D01*
X132704631Y-127888639D01*
X132704172Y-127882810D01*
X132702709Y-127836239D01*
X132697122Y-127817011D01*
X132693174Y-127797951D01*
X132690663Y-127778071D01*
X132673512Y-127734754D01*
X132671619Y-127729225D01*
X132658618Y-127684476D01*
X132658616Y-127684473D01*
X132648423Y-127667238D01*
X132639861Y-127649761D01*
X132632487Y-127631137D01*
X132632486Y-127631135D01*
X132605079Y-127593412D01*
X132601888Y-127588553D01*
X132578172Y-127548450D01*
X132578165Y-127548441D01*
X132564006Y-127534282D01*
X132551368Y-127519486D01*
X132539594Y-127503280D01*
X132503688Y-127473576D01*
X132499376Y-127469653D01*
X122581819Y-117552095D01*
X122548334Y-117490772D01*
X122545500Y-117464414D01*
X122545500Y-116880002D01*
X123104494Y-116880002D01*
X123124478Y-117108429D01*
X123124479Y-117108436D01*
X123183827Y-117329925D01*
X123183828Y-117329927D01*
X123183829Y-117329930D01*
X123280738Y-117537753D01*
X123412264Y-117725591D01*
X123574409Y-117887736D01*
X123762247Y-118019262D01*
X123970070Y-118116171D01*
X124191565Y-118175521D01*
X124354732Y-118189796D01*
X124419998Y-118195506D01*
X124420000Y-118195506D01*
X124420002Y-118195506D01*
X124477108Y-118190509D01*
X124648435Y-118175521D01*
X124869930Y-118116171D01*
X125077753Y-118019262D01*
X125265591Y-117887736D01*
X125427736Y-117725591D01*
X125559262Y-117537753D01*
X125656171Y-117329930D01*
X125715521Y-117108435D01*
X125735506Y-116880000D01*
X125715521Y-116651565D01*
X125656171Y-116430070D01*
X125559262Y-116222247D01*
X125427736Y-116034409D01*
X125265591Y-115872264D01*
X125077753Y-115740738D01*
X124869930Y-115643829D01*
X124869927Y-115643828D01*
X124869925Y-115643827D01*
X124648436Y-115584479D01*
X124648429Y-115584478D01*
X124420002Y-115564494D01*
X124419998Y-115564494D01*
X124191570Y-115584478D01*
X124191563Y-115584479D01*
X123970074Y-115643827D01*
X123970070Y-115643829D01*
X123762247Y-115740738D01*
X123574409Y-115872264D01*
X123574407Y-115872265D01*
X123574404Y-115872268D01*
X123412268Y-116034404D01*
X123412265Y-116034407D01*
X123412264Y-116034409D01*
X123280738Y-116222247D01*
X123230523Y-116329935D01*
X123183830Y-116430068D01*
X123183827Y-116430074D01*
X123124479Y-116651563D01*
X123124478Y-116651570D01*
X123104494Y-116879997D01*
X123104494Y-116880002D01*
X122545500Y-116880002D01*
X122545500Y-115606395D01*
X122565185Y-115539356D01*
X122598371Y-115504824D01*
X122765591Y-115387736D01*
X122927736Y-115225591D01*
X123059262Y-115037753D01*
X123156171Y-114829930D01*
X123215521Y-114608435D01*
X123235506Y-114380000D01*
X123215521Y-114151565D01*
X123195483Y-114076787D01*
X123197146Y-114006937D01*
X123227575Y-113957013D01*
X126065665Y-111118924D01*
X126126986Y-111085441D01*
X126196678Y-111090425D01*
X126236878Y-111114967D01*
X126288568Y-111162088D01*
X126393218Y-111226884D01*
X126473786Y-111276770D01*
X126473792Y-111276773D01*
X126496664Y-111285633D01*
X126676931Y-111355470D01*
X126891074Y-111395500D01*
X126891076Y-111395500D01*
X127108924Y-111395500D01*
X127108926Y-111395500D01*
X127323069Y-111355470D01*
X127526210Y-111276772D01*
X127711432Y-111162088D01*
X127872427Y-111015322D01*
X128003712Y-110841472D01*
X128100817Y-110646459D01*
X128160435Y-110436923D01*
X128180536Y-110220000D01*
X128160435Y-110003077D01*
X128100817Y-109793541D01*
X128003712Y-109598528D01*
X127922251Y-109490656D01*
X127897560Y-109425297D01*
X127912125Y-109356962D01*
X127946895Y-109316665D01*
X127994545Y-109280993D01*
X128032546Y-109252546D01*
X128118796Y-109137331D01*
X128169091Y-109002483D01*
X128175500Y-108942873D01*
X128175499Y-107497128D01*
X128169091Y-107437517D01*
X128118796Y-107302669D01*
X128118795Y-107302668D01*
X128118793Y-107302664D01*
X128032547Y-107187455D01*
X128032544Y-107187452D01*
X127917335Y-107101206D01*
X127917328Y-107101202D01*
X127782482Y-107050908D01*
X127782483Y-107050908D01*
X127722883Y-107044501D01*
X127722881Y-107044500D01*
X127722873Y-107044500D01*
X127722864Y-107044500D01*
X126277129Y-107044500D01*
X126277123Y-107044501D01*
X126217516Y-107050908D01*
X126082671Y-107101202D01*
X126082664Y-107101206D01*
X125967455Y-107187452D01*
X125967452Y-107187455D01*
X125881206Y-107302664D01*
X125881202Y-107302671D01*
X125830910Y-107437513D01*
X125830909Y-107437517D01*
X125825937Y-107483757D01*
X125799201Y-107548306D01*
X125741809Y-107588154D01*
X125702649Y-107594500D01*
X112950452Y-107594500D01*
X112883413Y-107574815D01*
X112862771Y-107558181D01*
X108200994Y-102896403D01*
X108167509Y-102835080D01*
X108172492Y-102765390D01*
X108194091Y-102707483D01*
X108200500Y-102647873D01*
X108200500Y-101600005D01*
X112794357Y-101600005D01*
X112814890Y-101847812D01*
X112814892Y-101847824D01*
X112875936Y-102088881D01*
X112975826Y-102316606D01*
X113111833Y-102524782D01*
X113111836Y-102524785D01*
X113280256Y-102707738D01*
X113476491Y-102860474D01*
X113695190Y-102978828D01*
X113930386Y-103059571D01*
X114175665Y-103100500D01*
X114424335Y-103100500D01*
X114669614Y-103059571D01*
X114904810Y-102978828D01*
X115123509Y-102860474D01*
X115319744Y-102707738D01*
X115488164Y-102524785D01*
X115624173Y-102316607D01*
X115724063Y-102088881D01*
X115785108Y-101847821D01*
X115805643Y-101600000D01*
X115785108Y-101352179D01*
X115724063Y-101111119D01*
X115624173Y-100883393D01*
X115624172Y-100883393D01*
X115488166Y-100675217D01*
X115466557Y-100651744D01*
X115319744Y-100492262D01*
X115123509Y-100339526D01*
X115123507Y-100339525D01*
X115123506Y-100339524D01*
X114904811Y-100221172D01*
X114904802Y-100221169D01*
X114669616Y-100140429D01*
X114424335Y-100099500D01*
X114175665Y-100099500D01*
X113930383Y-100140429D01*
X113695197Y-100221169D01*
X113695188Y-100221172D01*
X113476493Y-100339524D01*
X113280257Y-100492261D01*
X113111833Y-100675217D01*
X112975826Y-100883393D01*
X112875936Y-101111118D01*
X112814892Y-101352175D01*
X112814890Y-101352187D01*
X112794357Y-101599994D01*
X112794357Y-101600005D01*
X108200500Y-101600005D01*
X108200499Y-100552128D01*
X108194091Y-100492517D01*
X108143796Y-100357669D01*
X108143795Y-100357668D01*
X108143793Y-100357664D01*
X108057547Y-100242455D01*
X108057544Y-100242452D01*
X107942335Y-100156206D01*
X107942328Y-100156202D01*
X107807482Y-100105908D01*
X107807483Y-100105908D01*
X107747883Y-100099501D01*
X107747881Y-100099500D01*
X107747873Y-100099500D01*
X107747864Y-100099500D01*
X105652129Y-100099500D01*
X105652123Y-100099501D01*
X105592516Y-100105908D01*
X105457671Y-100156202D01*
X105457664Y-100156206D01*
X105342455Y-100242452D01*
X105342452Y-100242455D01*
X105256206Y-100357664D01*
X105256202Y-100357671D01*
X105205908Y-100492517D01*
X105199501Y-100552116D01*
X105199501Y-100552123D01*
X105199500Y-100552135D01*
X105199500Y-102647870D01*
X99060500Y-102647870D01*
X99060500Y-96520000D01*
X120814785Y-96520000D01*
X120833602Y-96723082D01*
X120889417Y-96919247D01*
X120889422Y-96919260D01*
X120980327Y-97101821D01*
X121103237Y-97264581D01*
X121253958Y-97401980D01*
X121253960Y-97401982D01*
X121331525Y-97450008D01*
X121427363Y-97509348D01*
X121617544Y-97583024D01*
X121818024Y-97620500D01*
X121818026Y-97620500D01*
X122021974Y-97620500D01*
X122021976Y-97620500D01*
X122222456Y-97583024D01*
X122412637Y-97509348D01*
X122586041Y-97401981D01*
X122736764Y-97264579D01*
X122859673Y-97101821D01*
X122950582Y-96919250D01*
X123006397Y-96723083D01*
X123025215Y-96520000D01*
X123020341Y-96467401D01*
X125695746Y-96467401D01*
X125705745Y-96677327D01*
X125755296Y-96881578D01*
X125755298Y-96881582D01*
X125842598Y-97072743D01*
X125842601Y-97072748D01*
X125842602Y-97072750D01*
X125842604Y-97072753D01*
X125905627Y-97161256D01*
X125964515Y-97243953D01*
X125964520Y-97243959D01*
X126116620Y-97388985D01*
X126211578Y-97450011D01*
X126293428Y-97502613D01*
X126488543Y-97580725D01*
X126591729Y-97600612D01*
X126694914Y-97620500D01*
X126694915Y-97620500D01*
X127252419Y-97620500D01*
X127252425Y-97620500D01*
X127409218Y-97605528D01*
X127610875Y-97546316D01*
X127797682Y-97450011D01*
X127962886Y-97320092D01*
X128100519Y-97161256D01*
X128205604Y-96979244D01*
X128274344Y-96780633D01*
X128304254Y-96572602D01*
X128294254Y-96362670D01*
X128244704Y-96158424D01*
X128227494Y-96120739D01*
X128157401Y-95967256D01*
X128157398Y-95967251D01*
X128157397Y-95967250D01*
X128157396Y-95967247D01*
X128035486Y-95796048D01*
X128035484Y-95796046D01*
X128035479Y-95796040D01*
X127883379Y-95651014D01*
X127706574Y-95537388D01*
X127689748Y-95530652D01*
X127511457Y-95459275D01*
X127511455Y-95459274D01*
X127305086Y-95419500D01*
X127305085Y-95419500D01*
X126747575Y-95419500D01*
X126590781Y-95434472D01*
X126590782Y-95434472D01*
X126590778Y-95434473D01*
X126389127Y-95493683D01*
X126202313Y-95589991D01*
X126037116Y-95719905D01*
X126037112Y-95719909D01*
X125899478Y-95878746D01*
X125794398Y-96060750D01*
X125725656Y-96259365D01*
X125725656Y-96259367D01*
X125710804Y-96362670D01*
X125695746Y-96467401D01*
X123020341Y-96467401D01*
X123006397Y-96316917D01*
X122950582Y-96120750D01*
X122859673Y-95938179D01*
X122736764Y-95775421D01*
X122736762Y-95775418D01*
X122586041Y-95638019D01*
X122586039Y-95638017D01*
X122412642Y-95530655D01*
X122412635Y-95530651D01*
X122228390Y-95459275D01*
X122222456Y-95456976D01*
X122021976Y-95419500D01*
X121818024Y-95419500D01*
X121617544Y-95456976D01*
X121617541Y-95456976D01*
X121617541Y-95456977D01*
X121427364Y-95530651D01*
X121427357Y-95530655D01*
X121253960Y-95638017D01*
X121253958Y-95638019D01*
X121103237Y-95775418D01*
X120980327Y-95938178D01*
X120889422Y-96120739D01*
X120889417Y-96120752D01*
X120833602Y-96316917D01*
X120814785Y-96519999D01*
X120814785Y-96520000D01*
X99060500Y-96520000D01*
X99060500Y-93980000D01*
X123354785Y-93980000D01*
X123373602Y-94183082D01*
X123429417Y-94379247D01*
X123429422Y-94379260D01*
X123520327Y-94561821D01*
X123643237Y-94724581D01*
X123793958Y-94861980D01*
X123793960Y-94861982D01*
X123893141Y-94923392D01*
X123967363Y-94969348D01*
X124157544Y-95043024D01*
X124358024Y-95080500D01*
X124358026Y-95080500D01*
X124561974Y-95080500D01*
X124561976Y-95080500D01*
X124762456Y-95043024D01*
X124952637Y-94969348D01*
X125126041Y-94861981D01*
X125276764Y-94724579D01*
X125399673Y-94561821D01*
X125490582Y-94379250D01*
X125546397Y-94183083D01*
X125565215Y-93980000D01*
X125546397Y-93776917D01*
X125490582Y-93580750D01*
X125399673Y-93398179D01*
X125276764Y-93235421D01*
X125276762Y-93235418D01*
X125126041Y-93098019D01*
X125126039Y-93098017D01*
X124952642Y-92990655D01*
X124952635Y-92990651D01*
X124857546Y-92953814D01*
X124762456Y-92916976D01*
X124561976Y-92879500D01*
X124358024Y-92879500D01*
X124157544Y-92916976D01*
X124157541Y-92916976D01*
X124157541Y-92916977D01*
X123967364Y-92990651D01*
X123967357Y-92990655D01*
X123793960Y-93098017D01*
X123793958Y-93098019D01*
X123643237Y-93235418D01*
X123520327Y-93398178D01*
X123429422Y-93580739D01*
X123429417Y-93580752D01*
X123373602Y-93776917D01*
X123354785Y-93979999D01*
X123354785Y-93980000D01*
X99060500Y-93980000D01*
X99060500Y-88967763D01*
X99745787Y-88967763D01*
X99775413Y-89237013D01*
X99775415Y-89237024D01*
X99843926Y-89499082D01*
X99843928Y-89499088D01*
X99949870Y-89748390D01*
X100021998Y-89866575D01*
X100090979Y-89979605D01*
X100090986Y-89979615D01*
X100264253Y-90187819D01*
X100264259Y-90187824D01*
X100465998Y-90368582D01*
X100691910Y-90518044D01*
X100937176Y-90633020D01*
X100937183Y-90633022D01*
X100937185Y-90633023D01*
X101196557Y-90711057D01*
X101196564Y-90711058D01*
X101196569Y-90711060D01*
X101464561Y-90750500D01*
X101464566Y-90750500D01*
X101667636Y-90750500D01*
X101719133Y-90746730D01*
X101870156Y-90735677D01*
X101982758Y-90710593D01*
X102134546Y-90676782D01*
X102134548Y-90676781D01*
X102134553Y-90676780D01*
X102387558Y-90580014D01*
X102623777Y-90447441D01*
X102838177Y-90281888D01*
X103026186Y-90086881D01*
X103183799Y-89866579D01*
X103257787Y-89722669D01*
X103307649Y-89625690D01*
X103307651Y-89625684D01*
X103307656Y-89625675D01*
X103395118Y-89369305D01*
X103444319Y-89102933D01*
X103449259Y-88967763D01*
X132765787Y-88967763D01*
X132795413Y-89237013D01*
X132795415Y-89237024D01*
X132863926Y-89499082D01*
X132863928Y-89499088D01*
X132969870Y-89748390D01*
X133041998Y-89866575D01*
X133110979Y-89979605D01*
X133110986Y-89979615D01*
X133284253Y-90187819D01*
X133284259Y-90187824D01*
X133485998Y-90368582D01*
X133711910Y-90518044D01*
X133957176Y-90633020D01*
X133957183Y-90633022D01*
X133957185Y-90633023D01*
X134216557Y-90711057D01*
X134216564Y-90711058D01*
X134216569Y-90711060D01*
X134484561Y-90750500D01*
X134484566Y-90750500D01*
X134687636Y-90750500D01*
X134739133Y-90746730D01*
X134890156Y-90735677D01*
X135002758Y-90710593D01*
X135154546Y-90676782D01*
X135154548Y-90676781D01*
X135154553Y-90676780D01*
X135407558Y-90580014D01*
X135643777Y-90447441D01*
X135858177Y-90281888D01*
X136046186Y-90086881D01*
X136203799Y-89866579D01*
X136277787Y-89722669D01*
X136327649Y-89625690D01*
X136327651Y-89625684D01*
X136327656Y-89625675D01*
X136415118Y-89369305D01*
X136464319Y-89102933D01*
X136474212Y-88832235D01*
X136444586Y-88562982D01*
X136376072Y-88300912D01*
X136270130Y-88051610D01*
X136129018Y-87820390D01*
X136039747Y-87713119D01*
X135955746Y-87612180D01*
X135955740Y-87612175D01*
X135754002Y-87431418D01*
X135528092Y-87281957D01*
X135528090Y-87281956D01*
X135282824Y-87166980D01*
X135282819Y-87166978D01*
X135282814Y-87166976D01*
X135023442Y-87088942D01*
X135023428Y-87088939D01*
X134907791Y-87071921D01*
X134755439Y-87049500D01*
X134552369Y-87049500D01*
X134552364Y-87049500D01*
X134349844Y-87064323D01*
X134349831Y-87064325D01*
X134085453Y-87123217D01*
X134085446Y-87123220D01*
X133832439Y-87219987D01*
X133596226Y-87352557D01*
X133381822Y-87518112D01*
X133193822Y-87713109D01*
X133193816Y-87713116D01*
X133036202Y-87933419D01*
X133036199Y-87933424D01*
X132912350Y-88174309D01*
X132912343Y-88174327D01*
X132824884Y-88430685D01*
X132824881Y-88430699D01*
X132775681Y-88697068D01*
X132775680Y-88697075D01*
X132765787Y-88967763D01*
X103449259Y-88967763D01*
X103454212Y-88832235D01*
X103424586Y-88562982D01*
X103356072Y-88300912D01*
X103250130Y-88051610D01*
X103109018Y-87820390D01*
X103019747Y-87713119D01*
X102935746Y-87612180D01*
X102935740Y-87612175D01*
X102734002Y-87431418D01*
X102508092Y-87281957D01*
X102508090Y-87281956D01*
X102262824Y-87166980D01*
X102262819Y-87166978D01*
X102262814Y-87166976D01*
X102003442Y-87088942D01*
X102003428Y-87088939D01*
X101887791Y-87071921D01*
X101735439Y-87049500D01*
X101532369Y-87049500D01*
X101532364Y-87049500D01*
X101329844Y-87064323D01*
X101329831Y-87064325D01*
X101065453Y-87123217D01*
X101065446Y-87123220D01*
X100812439Y-87219987D01*
X100576226Y-87352557D01*
X100361822Y-87518112D01*
X100173822Y-87713109D01*
X100173816Y-87713116D01*
X100016202Y-87933419D01*
X100016199Y-87933424D01*
X99892350Y-88174309D01*
X99892343Y-88174327D01*
X99804884Y-88430685D01*
X99804881Y-88430699D01*
X99755681Y-88697068D01*
X99755680Y-88697075D01*
X99745787Y-88967763D01*
X99060500Y-88967763D01*
X99060500Y-86484500D01*
X99080185Y-86417461D01*
X99132989Y-86371706D01*
X99184500Y-86360500D01*
X137035500Y-86360500D01*
X137102539Y-86380185D01*
G37*
%TD.AperFunction*%
%TD*%
M02*
