%TF.GenerationSoftware,KiCad,Pcbnew,7.0.7*%
%TF.CreationDate,2024-02-26T23:05:05+05:30*%
%TF.ProjectId,ABC,4142432e-6b69-4636-9164-5f7063625858,v01*%
%TF.SameCoordinates,Original*%
%TF.FileFunction,Legend,Top*%
%TF.FilePolarity,Positive*%
%FSLAX46Y46*%
G04 Gerber Fmt 4.6, Leading zero omitted, Abs format (unit mm)*
G04 Created by KiCad (PCBNEW 7.0.7) date 2024-02-26 23:05:05*
%MOMM*%
%LPD*%
G01*
G04 APERTURE LIST*
%ADD10C,0.150000*%
%ADD11C,0.120000*%
G04 APERTURE END LIST*
D10*
X100266666Y-146114819D02*
X99933333Y-145638628D01*
X99695238Y-146114819D02*
X99695238Y-145114819D01*
X99695238Y-145114819D02*
X100076190Y-145114819D01*
X100076190Y-145114819D02*
X100171428Y-145162438D01*
X100171428Y-145162438D02*
X100219047Y-145210057D01*
X100219047Y-145210057D02*
X100266666Y-145305295D01*
X100266666Y-145305295D02*
X100266666Y-145448152D01*
X100266666Y-145448152D02*
X100219047Y-145543390D01*
X100219047Y-145543390D02*
X100171428Y-145591009D01*
X100171428Y-145591009D02*
X100076190Y-145638628D01*
X100076190Y-145638628D02*
X99695238Y-145638628D01*
X100695238Y-145591009D02*
X101028571Y-145591009D01*
X101171428Y-146114819D02*
X100695238Y-146114819D01*
X100695238Y-146114819D02*
X100695238Y-145114819D01*
X100695238Y-145114819D02*
X101171428Y-145114819D01*
X101933333Y-145591009D02*
X101600000Y-145591009D01*
X101600000Y-146114819D02*
X101600000Y-145114819D01*
X101600000Y-145114819D02*
X102076190Y-145114819D01*
X102600000Y-145114819D02*
X102600000Y-145352914D01*
X102361905Y-145257676D02*
X102600000Y-145352914D01*
X102600000Y-145352914D02*
X102838095Y-145257676D01*
X102457143Y-145543390D02*
X102600000Y-145352914D01*
X102600000Y-145352914D02*
X102742857Y-145543390D01*
X103361905Y-145114819D02*
X103361905Y-145352914D01*
X103123810Y-145257676D02*
X103361905Y-145352914D01*
X103361905Y-145352914D02*
X103600000Y-145257676D01*
X103219048Y-145543390D02*
X103361905Y-145352914D01*
X103361905Y-145352914D02*
X103504762Y-145543390D01*
X133286666Y-146114819D02*
X132953333Y-145638628D01*
X132715238Y-146114819D02*
X132715238Y-145114819D01*
X132715238Y-145114819D02*
X133096190Y-145114819D01*
X133096190Y-145114819D02*
X133191428Y-145162438D01*
X133191428Y-145162438D02*
X133239047Y-145210057D01*
X133239047Y-145210057D02*
X133286666Y-145305295D01*
X133286666Y-145305295D02*
X133286666Y-145448152D01*
X133286666Y-145448152D02*
X133239047Y-145543390D01*
X133239047Y-145543390D02*
X133191428Y-145591009D01*
X133191428Y-145591009D02*
X133096190Y-145638628D01*
X133096190Y-145638628D02*
X132715238Y-145638628D01*
X133715238Y-145591009D02*
X134048571Y-145591009D01*
X134191428Y-146114819D02*
X133715238Y-146114819D01*
X133715238Y-146114819D02*
X133715238Y-145114819D01*
X133715238Y-145114819D02*
X134191428Y-145114819D01*
X134953333Y-145591009D02*
X134620000Y-145591009D01*
X134620000Y-146114819D02*
X134620000Y-145114819D01*
X134620000Y-145114819D02*
X135096190Y-145114819D01*
X135620000Y-145114819D02*
X135620000Y-145352914D01*
X135381905Y-145257676D02*
X135620000Y-145352914D01*
X135620000Y-145352914D02*
X135858095Y-145257676D01*
X135477143Y-145543390D02*
X135620000Y-145352914D01*
X135620000Y-145352914D02*
X135762857Y-145543390D01*
X136381905Y-145114819D02*
X136381905Y-145352914D01*
X136143810Y-145257676D02*
X136381905Y-145352914D01*
X136381905Y-145352914D02*
X136620000Y-145257676D01*
X136239048Y-145543390D02*
X136381905Y-145352914D01*
X136381905Y-145352914D02*
X136524762Y-145543390D01*
X125714286Y-105614819D02*
X126285714Y-105614819D01*
X126000000Y-106614819D02*
X126000000Y-105614819D01*
X126619048Y-106614819D02*
X126619048Y-105614819D01*
X126619048Y-106091009D02*
X127190476Y-106091009D01*
X127190476Y-106614819D02*
X127190476Y-105614819D01*
X128190476Y-106614819D02*
X127619048Y-106614819D01*
X127904762Y-106614819D02*
X127904762Y-105614819D01*
X127904762Y-105614819D02*
X127809524Y-105757676D01*
X127809524Y-105757676D02*
X127714286Y-105852914D01*
X127714286Y-105852914D02*
X127619048Y-105900533D01*
X121324761Y-112774819D02*
X120991428Y-112298628D01*
X120753333Y-112774819D02*
X120753333Y-111774819D01*
X120753333Y-111774819D02*
X121134285Y-111774819D01*
X121134285Y-111774819D02*
X121229523Y-111822438D01*
X121229523Y-111822438D02*
X121277142Y-111870057D01*
X121277142Y-111870057D02*
X121324761Y-111965295D01*
X121324761Y-111965295D02*
X121324761Y-112108152D01*
X121324761Y-112108152D02*
X121277142Y-112203390D01*
X121277142Y-112203390D02*
X121229523Y-112251009D01*
X121229523Y-112251009D02*
X121134285Y-112298628D01*
X121134285Y-112298628D02*
X120753333Y-112298628D01*
X121610476Y-111774819D02*
X121943809Y-112774819D01*
X121943809Y-112774819D02*
X122277142Y-111774819D01*
X123134285Y-112774819D02*
X122562857Y-112774819D01*
X122848571Y-112774819D02*
X122848571Y-111774819D01*
X122848571Y-111774819D02*
X122753333Y-111917676D01*
X122753333Y-111917676D02*
X122658095Y-112012914D01*
X122658095Y-112012914D02*
X122562857Y-112060533D01*
X116673333Y-142314819D02*
X116340000Y-141838628D01*
X116101905Y-142314819D02*
X116101905Y-141314819D01*
X116101905Y-141314819D02*
X116482857Y-141314819D01*
X116482857Y-141314819D02*
X116578095Y-141362438D01*
X116578095Y-141362438D02*
X116625714Y-141410057D01*
X116625714Y-141410057D02*
X116673333Y-141505295D01*
X116673333Y-141505295D02*
X116673333Y-141648152D01*
X116673333Y-141648152D02*
X116625714Y-141743390D01*
X116625714Y-141743390D02*
X116578095Y-141791009D01*
X116578095Y-141791009D02*
X116482857Y-141838628D01*
X116482857Y-141838628D02*
X116101905Y-141838628D01*
X117625714Y-142314819D02*
X117054286Y-142314819D01*
X117340000Y-142314819D02*
X117340000Y-141314819D01*
X117340000Y-141314819D02*
X117244762Y-141457676D01*
X117244762Y-141457676D02*
X117149524Y-141552914D01*
X117149524Y-141552914D02*
X117054286Y-141600533D01*
X124364761Y-102890057D02*
X124269523Y-102842438D01*
X124269523Y-102842438D02*
X124174285Y-102747200D01*
X124174285Y-102747200D02*
X124031428Y-102604342D01*
X124031428Y-102604342D02*
X123936190Y-102556723D01*
X123936190Y-102556723D02*
X123840952Y-102556723D01*
X123888571Y-102794819D02*
X123793333Y-102747200D01*
X123793333Y-102747200D02*
X123698095Y-102651961D01*
X123698095Y-102651961D02*
X123650476Y-102461485D01*
X123650476Y-102461485D02*
X123650476Y-102128152D01*
X123650476Y-102128152D02*
X123698095Y-101937676D01*
X123698095Y-101937676D02*
X123793333Y-101842438D01*
X123793333Y-101842438D02*
X123888571Y-101794819D01*
X123888571Y-101794819D02*
X124079047Y-101794819D01*
X124079047Y-101794819D02*
X124174285Y-101842438D01*
X124174285Y-101842438D02*
X124269523Y-101937676D01*
X124269523Y-101937676D02*
X124317142Y-102128152D01*
X124317142Y-102128152D02*
X124317142Y-102461485D01*
X124317142Y-102461485D02*
X124269523Y-102651961D01*
X124269523Y-102651961D02*
X124174285Y-102747200D01*
X124174285Y-102747200D02*
X124079047Y-102794819D01*
X124079047Y-102794819D02*
X123888571Y-102794819D01*
X125269523Y-102794819D02*
X124698095Y-102794819D01*
X124983809Y-102794819D02*
X124983809Y-101794819D01*
X124983809Y-101794819D02*
X124888571Y-101937676D01*
X124888571Y-101937676D02*
X124793333Y-102032914D01*
X124793333Y-102032914D02*
X124698095Y-102080533D01*
X103874819Y-115573333D02*
X104589104Y-115573333D01*
X104589104Y-115573333D02*
X104731961Y-115620952D01*
X104731961Y-115620952D02*
X104827200Y-115716190D01*
X104827200Y-115716190D02*
X104874819Y-115859047D01*
X104874819Y-115859047D02*
X104874819Y-115954285D01*
X104874819Y-114573333D02*
X104874819Y-115144761D01*
X104874819Y-114859047D02*
X103874819Y-114859047D01*
X103874819Y-114859047D02*
X104017676Y-114954285D01*
X104017676Y-114954285D02*
X104112914Y-115049523D01*
X104112914Y-115049523D02*
X104160533Y-115144761D01*
X126261905Y-126649819D02*
X126261905Y-125649819D01*
X126261905Y-125649819D02*
X126500000Y-125649819D01*
X126500000Y-125649819D02*
X126642857Y-125697438D01*
X126642857Y-125697438D02*
X126738095Y-125792676D01*
X126738095Y-125792676D02*
X126785714Y-125887914D01*
X126785714Y-125887914D02*
X126833333Y-126078390D01*
X126833333Y-126078390D02*
X126833333Y-126221247D01*
X126833333Y-126221247D02*
X126785714Y-126411723D01*
X126785714Y-126411723D02*
X126738095Y-126506961D01*
X126738095Y-126506961D02*
X126642857Y-126602200D01*
X126642857Y-126602200D02*
X126500000Y-126649819D01*
X126500000Y-126649819D02*
X126261905Y-126649819D01*
X127785714Y-126649819D02*
X127214286Y-126649819D01*
X127500000Y-126649819D02*
X127500000Y-125649819D01*
X127500000Y-125649819D02*
X127404762Y-125792676D01*
X127404762Y-125792676D02*
X127309524Y-125887914D01*
X127309524Y-125887914D02*
X127214286Y-125935533D01*
X121658095Y-130134819D02*
X121658095Y-129134819D01*
X122229523Y-130134819D02*
X121800952Y-129563390D01*
X122229523Y-129134819D02*
X121658095Y-129706247D01*
X110803333Y-126189580D02*
X110755714Y-126237200D01*
X110755714Y-126237200D02*
X110612857Y-126284819D01*
X110612857Y-126284819D02*
X110517619Y-126284819D01*
X110517619Y-126284819D02*
X110374762Y-126237200D01*
X110374762Y-126237200D02*
X110279524Y-126141961D01*
X110279524Y-126141961D02*
X110231905Y-126046723D01*
X110231905Y-126046723D02*
X110184286Y-125856247D01*
X110184286Y-125856247D02*
X110184286Y-125713390D01*
X110184286Y-125713390D02*
X110231905Y-125522914D01*
X110231905Y-125522914D02*
X110279524Y-125427676D01*
X110279524Y-125427676D02*
X110374762Y-125332438D01*
X110374762Y-125332438D02*
X110517619Y-125284819D01*
X110517619Y-125284819D02*
X110612857Y-125284819D01*
X110612857Y-125284819D02*
X110755714Y-125332438D01*
X110755714Y-125332438D02*
X110803333Y-125380057D01*
X111755714Y-126284819D02*
X111184286Y-126284819D01*
X111470000Y-126284819D02*
X111470000Y-125284819D01*
X111470000Y-125284819D02*
X111374762Y-125427676D01*
X111374762Y-125427676D02*
X111279524Y-125522914D01*
X111279524Y-125522914D02*
X111184286Y-125570533D01*
X109619047Y-94331009D02*
X109761904Y-94378628D01*
X109761904Y-94378628D02*
X109809523Y-94426247D01*
X109809523Y-94426247D02*
X109857142Y-94521485D01*
X109857142Y-94521485D02*
X109857142Y-94664342D01*
X109857142Y-94664342D02*
X109809523Y-94759580D01*
X109809523Y-94759580D02*
X109761904Y-94807200D01*
X109761904Y-94807200D02*
X109666666Y-94854819D01*
X109666666Y-94854819D02*
X109285714Y-94854819D01*
X109285714Y-94854819D02*
X109285714Y-93854819D01*
X109285714Y-93854819D02*
X109619047Y-93854819D01*
X109619047Y-93854819D02*
X109714285Y-93902438D01*
X109714285Y-93902438D02*
X109761904Y-93950057D01*
X109761904Y-93950057D02*
X109809523Y-94045295D01*
X109809523Y-94045295D02*
X109809523Y-94140533D01*
X109809523Y-94140533D02*
X109761904Y-94235771D01*
X109761904Y-94235771D02*
X109714285Y-94283390D01*
X109714285Y-94283390D02*
X109619047Y-94331009D01*
X109619047Y-94331009D02*
X109285714Y-94331009D01*
X110190476Y-93854819D02*
X110857142Y-93854819D01*
X110857142Y-93854819D02*
X110190476Y-94854819D01*
X110190476Y-94854819D02*
X110857142Y-94854819D01*
X111761904Y-94854819D02*
X111190476Y-94854819D01*
X111476190Y-94854819D02*
X111476190Y-93854819D01*
X111476190Y-93854819D02*
X111380952Y-93997676D01*
X111380952Y-93997676D02*
X111285714Y-94092914D01*
X111285714Y-94092914D02*
X111190476Y-94140533D01*
X106309048Y-99133866D02*
X107070953Y-99133866D01*
X106690000Y-99514819D02*
X106690000Y-98752914D01*
D11*
%TO.C,TH1*%
X128060000Y-109220000D02*
X128060000Y-111280000D01*
X125940000Y-108220000D02*
X125940000Y-107160000D01*
X125940000Y-107160000D02*
X127000000Y-107160000D01*
X125940000Y-109220000D02*
X128060000Y-109220000D01*
X125940000Y-111280000D02*
X128060000Y-111280000D01*
X125940000Y-109220000D02*
X125940000Y-111280000D01*
%TO.C,RV1*%
X122845000Y-120150000D02*
X125540000Y-120150000D01*
X125540000Y-115760000D02*
X125540000Y-118000000D01*
X125540000Y-113610000D02*
X125540000Y-120150000D01*
X121799000Y-115446000D02*
X121799000Y-118315000D01*
X121799000Y-115760000D02*
X125540000Y-115760000D01*
X121799000Y-118000000D02*
X125540000Y-118000000D01*
X121799000Y-115760000D02*
X121799000Y-118000000D01*
X122845000Y-113610000D02*
X125540000Y-113610000D01*
%TO.C,R1*%
X111770000Y-143340000D02*
X111770000Y-142860000D01*
X121910000Y-146700000D02*
X121910000Y-146220000D01*
X111770000Y-142860000D02*
X121910000Y-142860000D01*
X111770000Y-146220000D02*
X111770000Y-146700000D01*
X111770000Y-146700000D02*
X121910000Y-146700000D01*
X121910000Y-142860000D02*
X121910000Y-143340000D01*
%TO.C,Q1*%
X128234673Y-99517371D02*
G75*
G03*
X127457084Y-100294901I-3774673J2997371D01*
G01*
X128348039Y-101185856D02*
X129125856Y-100408039D01*
X129125856Y-100408039D02*
X128234902Y-99517084D01*
X127457084Y-100294902D02*
X128348039Y-101185856D01*
%TO.C,J1*%
X105860000Y-113930000D02*
X106510000Y-113930000D01*
X112580000Y-116550000D02*
X112580000Y-113930000D01*
X105860000Y-116550000D02*
X108510000Y-116550000D01*
X107930000Y-113930000D02*
X110510000Y-113930000D01*
X111930000Y-113930000D02*
X112580000Y-113930000D01*
X109930000Y-116550000D02*
X112580000Y-116550000D01*
X106510000Y-113930000D02*
X106510000Y-112700000D01*
X105860000Y-116550000D02*
X105860000Y-113930000D01*
%TO.C,D1*%
X124333000Y-127195000D02*
X124333000Y-136965000D01*
X124453000Y-127195000D02*
X124453000Y-136965000D01*
X123070000Y-127195000D02*
X130930000Y-127195000D01*
X123070000Y-133720000D02*
X123070000Y-136965000D01*
X123070000Y-130440000D02*
X123070000Y-127195000D01*
X130930000Y-127195000D02*
X130930000Y-130440000D01*
X124213000Y-127195000D02*
X124213000Y-136965000D01*
X130930000Y-136965000D02*
X130930000Y-133720000D01*
X123070000Y-136965000D02*
X130930000Y-136965000D01*
%TO.C,C1*%
X113731000Y-127807000D02*
X113731000Y-130839000D01*
X113131000Y-133321000D02*
X113131000Y-136683000D01*
X111971000Y-127098000D02*
X111971000Y-130839000D01*
X114451000Y-128364000D02*
X114451000Y-135796000D01*
X113091000Y-127459000D02*
X113091000Y-130839000D01*
X114251000Y-128188000D02*
X114251000Y-135972000D01*
X111530000Y-127030000D02*
X111530000Y-130839000D01*
X112411000Y-133321000D02*
X112411000Y-136954000D01*
X114931000Y-128874000D02*
X114931000Y-135286000D01*
X113851000Y-133321000D02*
X113851000Y-136274000D01*
X115891000Y-130702000D02*
X115891000Y-133458000D01*
X113891000Y-127914000D02*
X113891000Y-130839000D01*
X111650000Y-127045000D02*
X111650000Y-130839000D01*
X112731000Y-127312000D02*
X112731000Y-130839000D01*
X111130000Y-127002000D02*
X111130000Y-137158000D01*
X112571000Y-127256000D02*
X112571000Y-130839000D01*
X112371000Y-127195000D02*
X112371000Y-130839000D01*
X111731000Y-127056000D02*
X111731000Y-130839000D01*
X115451000Y-129641000D02*
X115451000Y-134519000D01*
X115491000Y-129715000D02*
X115491000Y-134445000D01*
X113171000Y-127496000D02*
X113171000Y-130839000D01*
X110970000Y-127000000D02*
X110970000Y-137160000D01*
X114011000Y-128000000D02*
X114011000Y-136160000D01*
X115691000Y-130136000D02*
X115691000Y-134024000D01*
X112331000Y-133321000D02*
X112331000Y-136977000D01*
X112131000Y-127133000D02*
X112131000Y-130839000D01*
X112091000Y-127124000D02*
X112091000Y-130839000D01*
X112291000Y-133321000D02*
X112291000Y-136987000D01*
X112651000Y-127283000D02*
X112651000Y-130839000D01*
X112931000Y-133321000D02*
X112931000Y-136770000D01*
X114611000Y-128519000D02*
X114611000Y-135641000D01*
X112651000Y-133321000D02*
X112651000Y-136877000D01*
X115091000Y-129080000D02*
X115091000Y-135080000D01*
X113091000Y-133321000D02*
X113091000Y-136701000D01*
X111170000Y-127003000D02*
X111170000Y-137157000D01*
X111891000Y-127083000D02*
X111891000Y-130839000D01*
X113011000Y-133321000D02*
X113011000Y-136737000D01*
X113731000Y-133321000D02*
X113731000Y-136353000D01*
X112571000Y-133321000D02*
X112571000Y-136904000D01*
X113051000Y-127441000D02*
X113051000Y-130839000D01*
X112171000Y-127142000D02*
X112171000Y-130839000D01*
X112251000Y-127162000D02*
X112251000Y-130839000D01*
X113811000Y-133321000D02*
X113811000Y-136301000D01*
X114731000Y-128644000D02*
X114731000Y-135516000D01*
X115011000Y-128974000D02*
X115011000Y-135186000D01*
X111691000Y-127050000D02*
X111691000Y-130839000D01*
X113011000Y-127423000D02*
X113011000Y-130839000D01*
X113611000Y-127733000D02*
X113611000Y-130839000D01*
X112851000Y-133321000D02*
X112851000Y-136803000D01*
X113771000Y-127833000D02*
X113771000Y-130839000D01*
X113331000Y-133321000D02*
X113331000Y-136584000D01*
X111891000Y-133321000D02*
X111891000Y-137077000D01*
X113691000Y-133321000D02*
X113691000Y-136378000D01*
X112451000Y-127218000D02*
X112451000Y-130839000D01*
X111010000Y-127000000D02*
X111010000Y-137160000D01*
X113771000Y-133321000D02*
X113771000Y-136327000D01*
X111610000Y-133321000D02*
X111610000Y-137120000D01*
X111771000Y-127062000D02*
X111771000Y-130839000D01*
X112171000Y-133321000D02*
X112171000Y-137018000D01*
X112611000Y-127269000D02*
X112611000Y-130839000D01*
X115291000Y-129371000D02*
X115291000Y-134789000D01*
X113531000Y-133321000D02*
X113531000Y-136475000D01*
X111811000Y-127069000D02*
X111811000Y-130839000D01*
X113211000Y-133321000D02*
X113211000Y-136644000D01*
X113931000Y-127942000D02*
X113931000Y-130839000D01*
X111570000Y-133321000D02*
X111570000Y-137125000D01*
X113331000Y-127576000D02*
X113331000Y-130839000D01*
X112491000Y-127230000D02*
X112491000Y-130839000D01*
X113691000Y-127782000D02*
X113691000Y-130839000D01*
X113371000Y-127597000D02*
X113371000Y-130839000D01*
X111490000Y-133321000D02*
X111490000Y-137134000D01*
X113851000Y-127886000D02*
X113851000Y-130839000D01*
X113451000Y-133321000D02*
X113451000Y-136520000D01*
X115171000Y-129191000D02*
X115171000Y-134969000D01*
X113291000Y-133321000D02*
X113291000Y-136605000D01*
X113571000Y-133321000D02*
X113571000Y-136451000D01*
X111731000Y-133321000D02*
X111731000Y-137104000D01*
X111530000Y-133321000D02*
X111530000Y-137130000D01*
X112931000Y-127390000D02*
X112931000Y-130839000D01*
X112531000Y-133321000D02*
X112531000Y-136917000D01*
X111811000Y-133321000D02*
X111811000Y-137091000D01*
X114171000Y-128123000D02*
X114171000Y-136037000D01*
X113611000Y-133321000D02*
X113611000Y-136427000D01*
X111650000Y-133321000D02*
X111650000Y-137115000D01*
X113051000Y-133321000D02*
X113051000Y-136719000D01*
X111931000Y-133321000D02*
X111931000Y-137070000D01*
X112691000Y-133321000D02*
X112691000Y-136863000D01*
X114851000Y-128779000D02*
X114851000Y-135381000D01*
X114331000Y-128256000D02*
X114331000Y-135904000D01*
X111490000Y-127026000D02*
X111490000Y-130839000D01*
X112371000Y-133321000D02*
X112371000Y-136965000D01*
X115571000Y-129871000D02*
X115571000Y-134289000D01*
X112731000Y-133321000D02*
X112731000Y-136848000D01*
X112491000Y-133321000D02*
X112491000Y-136930000D01*
X112451000Y-133321000D02*
X112451000Y-136942000D01*
X112531000Y-127243000D02*
X112531000Y-130839000D01*
X115251000Y-129310000D02*
X115251000Y-134850000D01*
X113931000Y-133321000D02*
X113931000Y-136218000D01*
X115411000Y-129570000D02*
X115411000Y-134590000D01*
X112811000Y-127342000D02*
X112811000Y-130839000D01*
X114291000Y-128222000D02*
X114291000Y-135938000D01*
X115651000Y-130043000D02*
X115651000Y-134117000D01*
X115971000Y-131018000D02*
X115971000Y-133142000D01*
X113251000Y-127535000D02*
X113251000Y-130839000D01*
X112131000Y-133321000D02*
X112131000Y-137027000D01*
X115611000Y-129955000D02*
X115611000Y-134205000D01*
X112051000Y-133321000D02*
X112051000Y-137045000D01*
X111971000Y-133321000D02*
X111971000Y-137062000D01*
X112891000Y-133321000D02*
X112891000Y-136787000D01*
X112811000Y-133321000D02*
X112811000Y-136818000D01*
X111330000Y-127012000D02*
X111330000Y-137148000D01*
X111851000Y-133321000D02*
X111851000Y-137084000D01*
X113491000Y-127663000D02*
X113491000Y-130839000D01*
X114051000Y-128030000D02*
X114051000Y-136130000D01*
X112411000Y-127206000D02*
X112411000Y-130839000D01*
X113171000Y-133321000D02*
X113171000Y-136664000D01*
X114131000Y-128091000D02*
X114131000Y-136069000D01*
X114491000Y-128401000D02*
X114491000Y-135759000D01*
X112011000Y-133321000D02*
X112011000Y-137054000D01*
X112971000Y-133321000D02*
X112971000Y-136754000D01*
X113251000Y-133321000D02*
X113251000Y-136625000D01*
X112051000Y-127115000D02*
X112051000Y-130839000D01*
X111410000Y-127018000D02*
X111410000Y-137142000D01*
X114531000Y-128440000D02*
X114531000Y-135720000D01*
X115851000Y-130570000D02*
X115851000Y-133590000D01*
X111851000Y-127076000D02*
X111851000Y-130839000D01*
X112771000Y-127326000D02*
X112771000Y-130839000D01*
X111931000Y-127090000D02*
X111931000Y-130839000D01*
X115331000Y-129435000D02*
X115331000Y-134725000D01*
X113571000Y-127709000D02*
X113571000Y-130839000D01*
X113451000Y-127640000D02*
X113451000Y-130839000D01*
X115771000Y-130338000D02*
X115771000Y-133822000D01*
X113651000Y-133321000D02*
X113651000Y-136403000D01*
X112091000Y-133321000D02*
X112091000Y-137036000D01*
X115931000Y-130850000D02*
X115931000Y-133310000D01*
X113371000Y-133321000D02*
X113371000Y-136563000D01*
X112891000Y-127373000D02*
X112891000Y-130839000D01*
X115811000Y-130450000D02*
X115811000Y-133710000D01*
X115531000Y-129791000D02*
X115531000Y-134369000D01*
X112611000Y-133321000D02*
X112611000Y-136891000D01*
X112251000Y-133321000D02*
X112251000Y-136998000D01*
X112771000Y-133321000D02*
X112771000Y-136834000D01*
X114971000Y-128924000D02*
X114971000Y-135236000D01*
X112211000Y-133321000D02*
X112211000Y-137008000D01*
X114571000Y-128479000D02*
X114571000Y-135681000D01*
X111370000Y-127015000D02*
X111370000Y-137145000D01*
X114811000Y-128733000D02*
X114811000Y-135427000D01*
X114211000Y-128155000D02*
X114211000Y-136005000D01*
X112211000Y-127152000D02*
X112211000Y-130839000D01*
X112691000Y-127297000D02*
X112691000Y-130839000D01*
X112331000Y-127183000D02*
X112331000Y-130839000D01*
X113291000Y-127555000D02*
X113291000Y-130839000D01*
X114771000Y-128688000D02*
X114771000Y-135472000D01*
X111290000Y-127010000D02*
X111290000Y-137150000D01*
X115731000Y-130234000D02*
X115731000Y-133926000D01*
X114651000Y-128560000D02*
X114651000Y-135600000D01*
X112011000Y-127106000D02*
X112011000Y-130839000D01*
X111771000Y-133321000D02*
X111771000Y-137098000D01*
X116051000Y-131481000D02*
X116051000Y-132679000D01*
X111250000Y-127007000D02*
X111250000Y-137153000D01*
X111570000Y-127035000D02*
X111570000Y-130839000D01*
X112851000Y-127357000D02*
X112851000Y-130839000D01*
X111450000Y-127022000D02*
X111450000Y-137138000D01*
X115211000Y-129250000D02*
X115211000Y-134910000D01*
X115131000Y-129135000D02*
X115131000Y-135025000D01*
X115371000Y-129501000D02*
X115371000Y-134659000D01*
X114891000Y-128826000D02*
X114891000Y-135334000D01*
X114691000Y-128602000D02*
X114691000Y-135558000D01*
X111090000Y-127001000D02*
X111090000Y-137159000D01*
X111691000Y-133321000D02*
X111691000Y-137110000D01*
X112291000Y-127173000D02*
X112291000Y-130839000D01*
X116011000Y-131218000D02*
X116011000Y-132942000D01*
X113891000Y-133321000D02*
X113891000Y-136246000D01*
X105490354Y-129205000D02*
X106490354Y-129205000D01*
X113651000Y-127757000D02*
X113651000Y-130839000D01*
X105990354Y-128705000D02*
X105990354Y-129705000D01*
X113491000Y-133321000D02*
X113491000Y-136497000D01*
X114371000Y-128291000D02*
X114371000Y-135869000D01*
X111050000Y-127000000D02*
X111050000Y-137160000D01*
X113131000Y-127477000D02*
X113131000Y-130839000D01*
X112971000Y-127406000D02*
X112971000Y-130839000D01*
X113531000Y-127685000D02*
X113531000Y-130839000D01*
X111610000Y-127040000D02*
X111610000Y-130839000D01*
X113211000Y-127516000D02*
X113211000Y-130839000D01*
X113811000Y-127859000D02*
X113811000Y-130839000D01*
X114091000Y-128060000D02*
X114091000Y-136100000D01*
X113411000Y-133321000D02*
X113411000Y-136542000D01*
X113411000Y-127618000D02*
X113411000Y-130839000D01*
X115051000Y-129026000D02*
X115051000Y-135134000D01*
X114411000Y-128327000D02*
X114411000Y-135833000D01*
X113971000Y-127970000D02*
X113971000Y-136190000D01*
X111210000Y-127005000D02*
X111210000Y-137155000D01*
X116090000Y-132080000D02*
G75*
G03*
X116090000Y-132080000I-5120000J0D01*
G01*
%TO.C,BZ1*%
X116600000Y-101600000D02*
G75*
G03*
X116600000Y-101600000I-6100000J0D01*
G01*
%TD*%
M02*
